<svg id="Layer_1" data-name="Layer 1" xmlns="http://www.w3.org/2000/svg" xmlns:xlink="http://www.w3.org/1999/xlink" viewBox="0 0 260 110"><defs><style>.cls-1{fill:#fff;}.cls-2{opacity:0.82;}.cls-3{fill:#c4e8f5;}.cls-4,.cls-6,.cls-7,.cls-8{fill:none;stroke-linecap:round;stroke-linejoin:round;}.cls-4{stroke:#403a33;}.cls-4,.cls-8{stroke-width:4px;}.cls-5{fill:#6ab889;}.cls-6,.cls-7,.cls-8{stroke:#514c47;}.cls-6{stroke-width:3px;}.cls-7{stroke-width:6px;}.cls-9{fill:#e57f68;}.cls-10{mask:url(#mask);}.cls-11{fill:#d2654c;}.cls-12{fill:#e7e5e2;}.cls-13{fill:#d8a25d;}.cls-14{mask:url(#mask-2-2);}.cls-15{fill:#0c5472;}.cls-16{fill:#635e59;}.cls-17{fill:#d1bfa3;}.cls-18{fill:#d19e9c;}.cls-19{fill:#333;}.cls-20{mask:url(#mask-3);}.cls-21{fill:#ababab;}.cls-22{fill:#5eadc7;}.cls-23{fill:#6a98a5;}.cls-24{fill:#deded9;}.cls-25{fill:#585b5c;}</style><mask id="mask" x="81.82" y="27.74" width="59" height="67" maskUnits="userSpaceOnUse"><g id="mask-2"><path id="path-1" class="cls-1" d="M133.59,54.93h0c0-14.08-10.19-25.49-22.75-25.49S88.05,40.85,88.05,54.93h0c0,12-6.23,18.9-6.23,18.9s6.14,7.51,29,7.51h0c22.84,0,29-7.51,29-7.51s-6.23-6.88-6.23-18.91"/></g></mask><mask id="mask-2-2" x="59.7" y="50.72" width="107" height="85" maskUnits="userSpaceOnUse"><g id="mask-4"><path id="path-3" class="cls-1" d="M120.76,74.61c5.1,2.5,13,9.28,13,15.56v20.75h-46V90.17c0-6.06,7.26-12.58,12.31-15.28l-.39.25c.87,1.44,3.21,7.8,10.55,7.8S121,76.11,121,74.77Z"/></g></mask><mask id="mask-3" x="142.69" y="29.37" width="56" height="66.93" maskUnits="userSpaceOnUse"><g id="mask-6"><path id="path-5" class="cls-1" d="M148.66,75.57a4.32,4.32,0,0,1-2.4-5.58,4.33,4.33,0,0,1-1.39-2.2,4.22,4.22,0,0,1,1.07-4.1,5.12,5.12,0,0,1,0-.56A4.21,4.21,0,0,1,148,59.45c.14-.19.28-.38.44-.56a2.82,2.82,0,0,0-2.06-2.67,2.93,2.93,0,0,1,0-5.6,2.93,2.93,0,0,0,1.23-4.86c-2-2.09-.08-5.67,2.65-4.85a2.52,2.52,0,0,0,1.3.06,3.53,3.53,0,0,1-.05-.66,4.23,4.23,0,0,1,2-3.64,2.72,2.72,0,0,1,4.66-2.14,4,4,0,0,1,3.67-2.62,3.74,3.74,0,0,1,1.42.28,2.62,2.62,0,0,1,1.07-.89,2.66,2.66,0,0,1,4.77-.17,2.65,2.65,0,0,0,4.76-.18,2.7,2.7,0,0,1,5.14,1l.41,0a4,4,0,0,1,3.7,2.73l.11-.07c2.38-1.63,5.24,1.19,3.87,3.81a2.87,2.87,0,0,0,2.52,4.27c2.84-.15,4,3.8,1.55,5.35l-.21.15a4.16,4.16,0,0,1,2.79,4,4.25,4.25,0,0,1-1,2.76,3.45,3.45,0,0,1,.07.55,4.24,4.24,0,0,1,1.72,3.45,4.29,4.29,0,0,1-.81,2.53,4.5,4.5,0,0,1,.61,1.22,3,3,0,0,1,.37,5.19,2.94,2.94,0,0,0,.07,5c2.5,1.49,1.54,5.45-1.3,5.36a2.62,2.62,0,0,0-1.38.34,4.13,4.13,0,0,1,.14.42,4.22,4.22,0,0,1-.91,3.93,2.73,2.73,0,0,1-3.88,3.51l-.21-.12a4,4,0,0,1-2.87,3.56,3.47,3.47,0,0,1-1.19.12,2.61,2.61,0,0,1-.83,1.18,2.67,2.67,0,0,1-4.59,1.49,2.66,2.66,0,0,0-4.55,1.41,2.69,2.69,0,0,1-5.21.39,3.67,3.67,0,0,1-.61.23,4,4,0,0,1-4.23-1.61c-1.89,2-5.28.08-4.65-2.77A2.87,2.87,0,0,0,155,86.84c-2.68.88-4.79-2.59-2.92-4.72A4.18,4.18,0,0,1,148.54,79a4.29,4.29,0,0,1,.3-3A2.64,2.64,0,0,1,148.66,75.57Z"/></g></mask></defs><title>Arbeidsrettet rehabilitering</title><g id="Arbeidsrettet-rehabilitering"><g id="Group" class="cls-2"><polygon id="Fill-1-Copy" class="cls-3" points="173 80 232 80 232 21 173 21 173 80"/><polygon id="Stroke-2-Copy" class="cls-4" points="176 81 235 81 235 22 176 22 176 81"/><path id="Fill-4-Copy" class="cls-5" d="M176,62.58c24.08-3.71,21.52,11.84,59,3.86V80H176Z"/><path id="Fill-5-Copy" class="cls-1" d="M220,39a4,4,0,1,0-4,4,4,4,0,0,0,4-4"/><path id="Fill-6-Copy" class="cls-1" d="M215,43.5a5.5,5.5,0,1,0-5.5,5.5,5.5,5.5,0,0,0,5.5-5.5"/><path id="Fill-7-Copy" class="cls-1" d="M220,45a3,3,0,1,0-3,3,3,3,0,0,0,3-3"/><polygon id="Stroke-9-Copy" class="cls-6" points="204 51 234 51 234 22 204 22 204 51"/><polygon id="Stroke-11-Copy" class="cls-6" points="204 80 234 80 234 51 204 51 204 80"/><path id="Stroke-12-Copy" class="cls-7" d="M167,80h76"/><polygon id="Stroke-19-Copy" class="cls-8" points="176 81 235 81 235 22 176 22 176 81"/></g><g id="mennesker_kvinne_-forfra_-B" data-name="mennesker/kvinne/-forfra/-B"><g id="Group-2"><g id="mennesker_kvinne_-hår_-halvlangt" data-name="mennesker/kvinne/⚙️/-hår/-halvlangt"><g id="hårfarge_-brunn" data-name="hårfarge/-brunn"><g id="Mask-4-2" data-name="Mask"><path id="path-1-2" data-name="path-1" class="cls-9" d="M133.59,54.93h0c0-14.08-10.19-25.49-22.75-25.49S88.05,40.85,88.05,54.93h0c0,12-6.23,18.9-6.23,18.9s6.14,7.51,29,7.51h0c22.84,0,29-7.51,29-7.51s-6.23-6.88-6.23-18.91"/></g><g class="cls-10"><g id="mennesker_hårfarge_-rød" data-name="mennesker/⚙️/hårfarge/-rød"><g id="hårfarge_-rød" data-name="hårfarge/-rød"><rect class="cls-11" x="81.82" y="27.74" width="59" height="67"/></g></g></g></g></g><g id="Group-2-2" data-name="Group"><path id="Combined-Shape" class="cls-12" d="M99.77,75c.88,1.39,3.33,25.76,10.69,25.76S121.14,76,121.14,74.68C109.87,68.26,99.77,75,99.77,75Z"/><g id="mennesker_kropp_forfra_-fatle" data-name="mennesker/⚙️/kropp/forfra/-fatle"><g id="Group-3" data-name="Group"><g id="_20_-Blå" data-name="+20/-Blå"><g id="Mask-5" data-name="Mask"><path id="path-3-2" data-name="path-3" class="cls-13" d="M120.76,74.61c5.1,2.5,13,9.28,13,15.56v20.75h-46V90.17c0-6.06,7.26-12.58,12.31-15.28l-.39.25c.87,1.44,3.21,7.8,10.55,7.8S121,76.11,121,74.77Z"/></g><g class="cls-14"><g id="_20_-Dyp-blå" data-name="⚙️/+20/-Dyp-blå"><g id="_20_-Dyp-blå-2" data-name="+20/-Dyp-blå"><polygon id="Fill-62" class="cls-15" points="59.7 135.72 166.7 135.72 166.7 50.72 59.7 50.72 59.7 135.72"/></g></g></g></g></g><g id="Group-4" data-name="Group"><path id="Fill-102" class="cls-1" d="M122.36,75.29a274.42,274.42,0,0,0-23.48,35.63h26.41V77.28A21,21,0,0,0,122.36,75.29Z"/><polygon id="Fill-103" class="cls-1" points="98.95 75.51 110.81 110.92 106.76 110.92 98.77 75.61 98.95 75.51"/></g></g><path id="Fill-337-Copy-7" class="cls-12" d="M93.4,52.82s-.09.51-.21.42a1.43,1.43,0,0,0-2,1.38v5.65a1.45,1.45,0,0,0,1.43,1.48,1.41,1.41,0,0,0,.85-.29C95.43,70.57,102.27,77,110.43,77s15-6.4,17-15.5a1.38,1.38,0,0,0,.84.29,1.46,1.46,0,0,0,1.44-1.48V54.68a1.47,1.47,0,0,0-1.43-1.49,1.27,1.27,0,0,0-.52.11C109.34,55.47,102.92,43,102.38,43,102.38,43,94.68,50.19,93.4,52.82Z"/></g><g id="mennesker_kvinne_ansikt-forfra_-glad" data-name="mennesker/kvinne/⚙️/ansikt-forfra/-glad"><g id="Group-5" data-name="Group"><path id="Fill-42" class="cls-16" d="M104.31,58.14c-1.24.09-1.58-1.72-1.21-2.9.07-.23.48-1.25,1.2-1.25a1.21,1.21,0,0,1,1.09.66c.53,1.15.27,3.39-1.08,3.49"/><path id="Fill-44" class="cls-16" d="M118.08,58.14c1.24.09,1.58-1.72,1.21-2.9-.07-.23-.48-1.25-1.2-1.25a1.23,1.23,0,0,0-1.09.66c-.53,1.15-.27,3.39,1.08,3.49"/><path id="Stroke-46" class="cls-17" d="M111.59,60.23c.72-.12,1.22,0,1.4.17.67.82.45,1.69-.7,2.4a2.32,2.32,0,0,1-1.87.32.42.42,0,1,0-.35.77,3.13,3.13,0,0,0,2.67-.36c1.57-1,1.92-2.42.91-3.66a2.22,2.22,0,0,0-2.19-.48.43.43,0,0,0-.36.48A.44.44,0,0,0,111.59,60.23Z"/><path id="Stroke-48" class="cls-18" d="M116.45,66.42a4.11,4.11,0,0,1-.27.48A5.85,5.85,0,0,1,111,69.59a6.64,6.64,0,0,1-4.29-1.6,6.47,6.47,0,0,1-1-1.11,3.78,3.78,0,0,1-.3-.47.42.42,0,1,0-.76.37,4.29,4.29,0,0,0,.37.6,7.26,7.26,0,0,0,1.14,1.25,7.53,7.53,0,0,0,4.82,1.81,6.74,6.74,0,0,0,6-3.08,3.56,3.56,0,0,0,.33-.6.42.42,0,0,0-.22-.56A.43.43,0,0,0,116.45,66.42Z"/></g></g></g></g><g id="mennesker_kvinne_-sideprofil_-A" data-name="mennesker/kvinne/-sideprofil/-A"><g id="Group-6" data-name="Group"><g id="mennesker_kvinne_-hår_-krøllete-langt" data-name="mennesker/kvinne/⚙️/-hår/-krøllete-langt"><g id="hårfarge_-brunn-2" data-name="hårfarge/-brunn"><g id="Mask-6-2" data-name="Mask"><path id="path-5-2" data-name="path-5" class="cls-19" d="M148.66,75.57a4.32,4.32,0,0,1-2.4-5.58,4.33,4.33,0,0,1-1.39-2.2,4.22,4.22,0,0,1,1.07-4.1,5.12,5.12,0,0,1,0-.56A4.21,4.21,0,0,1,148,59.45c.14-.19.28-.38.44-.56a2.82,2.82,0,0,0-2.06-2.67,2.93,2.93,0,0,1,0-5.6,2.93,2.93,0,0,0,1.23-4.86c-2-2.09-.08-5.67,2.65-4.85a2.52,2.52,0,0,0,1.3.06,3.53,3.53,0,0,1-.05-.66,4.23,4.23,0,0,1,2-3.64,2.72,2.72,0,0,1,4.66-2.14,4,4,0,0,1,3.67-2.62,3.74,3.74,0,0,1,1.42.28,2.62,2.62,0,0,1,1.07-.89,2.66,2.66,0,0,1,4.77-.17,2.65,2.65,0,0,0,4.76-.18,2.7,2.7,0,0,1,5.14,1l.41,0a4,4,0,0,1,3.7,2.73l.11-.07c2.38-1.63,5.24,1.19,3.87,3.81a2.87,2.87,0,0,0,2.52,4.27c2.84-.15,4,3.8,1.55,5.35l-.21.15a4.16,4.16,0,0,1,2.79,4,4.25,4.25,0,0,1-1,2.76,3.45,3.45,0,0,1,.07.55,4.24,4.24,0,0,1,1.72,3.45,4.29,4.29,0,0,1-.81,2.53,4.5,4.5,0,0,1,.61,1.22,3,3,0,0,1,.37,5.19,2.94,2.94,0,0,0,.07,5c2.5,1.49,1.54,5.45-1.3,5.36a2.62,2.62,0,0,0-1.38.34,4.13,4.13,0,0,1,.14.42,4.22,4.22,0,0,1-.91,3.93,2.73,2.73,0,0,1-3.88,3.51l-.21-.12a4,4,0,0,1-2.87,3.56,3.47,3.47,0,0,1-1.19.12,2.61,2.61,0,0,1-.83,1.18,2.67,2.67,0,0,1-4.59,1.49,2.66,2.66,0,0,0-4.55,1.41,2.69,2.69,0,0,1-5.21.39,3.67,3.67,0,0,1-.61.23,4,4,0,0,1-4.23-1.61c-1.89,2-5.28.08-4.65-2.77A2.87,2.87,0,0,0,155,86.84c-2.68.88-4.79-2.59-2.92-4.72A4.18,4.18,0,0,1,148.54,79a4.29,4.29,0,0,1,.3-3A2.64,2.64,0,0,1,148.66,75.57Z"/></g><g class="cls-20"><g id="mennesker_hårfarge_-grå" data-name="mennesker/⚙️/hårfarge/-grå"><g id="hårfarge_-grå" data-name="hårfarge/-grå"><rect class="cls-21" x="142.69" y="29.38" width="56" height="66"/></g></g></g></g></g><path id="Fill-160-Copy-2" class="cls-12" d="M184.12,60.27c-.09-.18-4-2.08-5.64-13.55C171,52.48,155.7,50,152.59,53.13c0,.22-2.33,11.87,5.25,18.42,1.23,1.06,3.08,1.6,3,2a20.06,20.06,0,0,0-2.52,1.55s3.57,20.23,11.77,20.23,11.47-21,11.47-21-2.29-1-2.1-1.87S183,67.13,183,67.13A16.43,16.43,0,0,0,186.9,65a3.09,3.09,0,0,0,0-4.47A3.58,3.58,0,0,0,184.12,60.27Z"/><g id="mennesker_kropp_sideprofil_-lege" data-name="mennesker/⚙️/kropp/sideprofil/-lege"><g id="Group-7"><g id="kropp_sideprofil_-lege" data-name="kropp/sideprofil/-lege"><path id="Oval-2" class="cls-22" d="M179.44,71.31c4.24,1.81,13.46,9.68,13.46,16.92V98a12,12,0,0,1-12,12h-33V88.23c0-6.15,6.8-12.66,11.39-15.63a13.89,13.89,0,0,0,7.3,3.34c1.56,3.23,3.37,7,3.37,7h.88s2.31-4.79,4-8.15A13.07,13.07,0,0,0,179.44,71.31Z"/><path id="Path" class="cls-23" d="M170.38,81.64c-.53-1.11-1.59-3.12-2.69-5.57a4.54,4.54,0,0,1-1.24-.13c1.59,3.51,3.47,7.79,3.47,7.79h.9s2.38-5.3,4.06-9a10.8,10.8,0,0,1-1.46.53Q172.22,77.91,170.38,81.64Z"/><g id="Group-6-2" data-name="Group-6"><path id="Fill-136" class="cls-1" d="M158.79,82.87c-3.07-5.49-1.59-8.74-.53-9.58l1-.67c-1.94,3.7-1.86,5.81.51,9.75Z"/><path id="Fill-138" class="cls-1" d="M156.85,82.93a8.3,8.3,0,0,1,3.81-1.46,6.68,6.68,0,0,1,4.68,1.46,3.46,3.46,0,0,1,1.4,2.1c.59,2.52,1.22,5,1.84,7.55a3.9,3.9,0,0,1-1.22,4.07.62.62,0,0,0-.15.29,1.6,1.6,0,0,1-1.53,1.36A1.57,1.57,0,0,1,164.09,97a1.59,1.59,0,0,1,2.42-1.66,2.32,2.32,0,0,0,.62-2.21c-.41-1.72-.84-3.43-1.26-5.15-.22-.89-.46-1.79-.66-2.69a1.73,1.73,0,0,0-.61-1,5.44,5.44,0,0,0-7.21.18,6.45,6.45,0,0,0-1.45,1.91,1.93,1.93,0,0,0-.13,1.34c.65,2.56,1.27,5.13,1.9,7.69a2.31,2.31,0,0,0,1.6,1.73,1.59,1.59,0,0,1,2.93.38,1.62,1.62,0,0,1-.79,1.83,1.53,1.53,0,0,1-1.93-.36.88.88,0,0,0-.48-.3A3.7,3.7,0,0,1,156.27,96c-.7-2.71-1.35-5.44-2-8.17a2.92,2.92,0,0,1,.23-1.86,7.17,7.17,0,0,1,2.36-3"/><polygon id="Fill-140" class="cls-1" points="180.9 84.15 179.98 84.15 179.98 71.81 180.9 72.31 180.9 84.15"/><path id="Fill-142" class="cls-1" d="M184.71,86.36A4.27,4.27,0,1,1,180.44,82a4.3,4.3,0,0,1,4.27,4.34"/><path id="Fill-144" class="cls-24" d="M183.67,86.36a3.23,3.23,0,1,1-3.23-3.28,3.25,3.25,0,0,1,3.23,3.28"/></g></g></g></g><g id="mennesker_kvinne_ansikt-profil_-blid" data-name="mennesker/kvinne/⚙️/ansikt-profil/-blid"><g id="Group-2-Copy"><path id="Stroke-223" class="cls-18" d="M168.84,65.26s-.07.16-.15.31a3.6,3.6,0,0,1-.58.75,4.06,4.06,0,0,1-3.66,1,2.38,2.38,0,0,1-1.78-1.15,3.57,3.57,0,0,1-.46-1.2.41.41,0,1,0-.82.11,3.91,3.91,0,0,0,.58,1.54,3.24,3.24,0,0,0,2.37,1.53,4.9,4.9,0,0,0,4.36-1.27,3.92,3.92,0,0,0,.92-1.37.41.41,0,0,0-.78-.28Z"/><path id="Fill-224" class="cls-16" d="M161.62,58.36c.88.3,1.52-1.36,1.5-2.54,0-.22-.08-1.25-.61-1.38a1,1,0,0,0-.94.44c-.63,1-.92,3.16.05,3.48"/><path id="Fill-225" class="cls-16" d="M169.11,58.53c1.09.19,1.54-1.54,1.31-2.71,0-.22-.33-1.24-1-1.29a1.09,1.09,0,0,0-1,.55c-.56,1.07-.51,3.25.69,3.45"/><path id="Stroke-65-Copy" class="cls-17" d="M162.84,58.78a3.43,3.43,0,0,1-.33.24,1.94,1.94,0,0,1-1.33.24l-.09,0c-.66-.09-1.11,0-1.27.18-.65.8-.44,1.64.66,2.33a2.23,2.23,0,0,0,1.8.3.41.41,0,1,1,.33.75,3,3,0,0,1-2.56-.35c-1.5-.94-1.84-2.34-.87-3.55a2.09,2.09,0,0,1,2-.47l.12,0a1.14,1.14,0,0,0,1-.28.41.41,0,0,1,.58,0A.42.42,0,0,1,162.84,58.78Z"/></g></g></g></g><path id="Fill-62-Copy-2" class="cls-25" d="M76.82,105.45H30.19a3.15,3.15,0,0,1-3.19-3.1V77.1A3.15,3.15,0,0,1,30.19,74H76.82A3.15,3.15,0,0,1,80,77.1v25.25a3.15,3.15,0,0,1-3.19,3.1"/><path id="Fill-84-Copy-2" class="cls-25" d="M78.12,109.7H28.89A1.86,1.86,0,0,1,27,107.86v0A1.86,1.86,0,0,1,28.89,106H78.12A1.87,1.87,0,0,1,80,107.84v0a1.87,1.87,0,0,1-1.89,1.84"/></g></svg>