<svg id="Layer_1" data-name="Layer 1" xmlns="http://www.w3.org/2000/svg" xmlns:xlink="http://www.w3.org/1999/xlink" viewBox="0 0 260 110"><defs><style>.cls-1,.cls-14{fill:#fff;}.cls-2{fill:#e57f68;}.cls-3{mask:url(#mask);}.cls-4{fill:#8b5f26;}.cls-5{fill:#e7e5e2;}.cls-6{mask:url(#mask-2);}.cls-7{fill:#666;}.cls-8{fill:#cdd1d1;}.cls-9{fill:#709caa;}.cls-10{fill:#635e59;}.cls-11{fill:#d1bfa3;}.cls-12{fill:#d19e9c;}.cls-13{mask:url(#mask-3);}.cls-14{stroke:#e7e9e9;stroke-width:0.76px;}.cls-15{fill:#8a3b2c;}.cls-16{fill:none;stroke:#74706c;stroke-width:0.5px;}.cls-17{mask:url(#mask-4);}.cls-18{mask:url(#mask-5);}.cls-19{fill:#d8a25d;}.cls-20{mask:url(#mask-6);}.cls-21{mask:url(#mask-7);}.cls-22{fill:#585b5c;}.cls-23{mask:url(#mask-8);}.cls-24{fill:#fdbd68;}</style><mask id="mask" x="165.71" y="33.49" width="54.78" height="63.46" maskUnits="userSpaceOnUse"><g id="avklaring-b"><path id="avklaring-a" class="cls-1" d="M213.92,59.17h0c0-13.3-9.48-24.08-21.19-24.08S171.5,45.87,171.5,59.17h0c0,11.35-5.79,17.84-5.79,17.84s5.72,7.09,27,7.09h0c21.27,0,27-7.09,27-7.09s-5.8-6.49-5.8-17.85"/></g></mask><mask id="mask-2" x="144.83" y="54.67" width="101.41" height="80.47" maskUnits="userSpaceOnUse"><g id="avklaring-d"><path id="avklaring-c" class="cls-1" d="M192.87,76.5H186.4c-3.49,0-15.09,8.26-15.09,15.79v19.79h43.32V92.29c0-7.53-11.8-15.79-15.29-15.79Z"/></g></mask><mask id="mask-3" x="101.71" y="32.3" width="54.78" height="63.46" maskUnits="userSpaceOnUse"><g id="avklaring-f"><path id="avklaring-e" class="cls-1" d="M149.92,58h0c0-13.3-9.48-24.08-21.19-24.08S107.5,44.68,107.5,58h0c0,11.35-5.79,17.84-5.79,17.84s5.72,7.1,27,7.1h0c21.27,0,27-7.1,27-7.1s-5.8-6.49-5.8-17.85"/></g></mask><mask id="mask-4" x="132.62" y="15.78" width="18.97" height="19.14" maskUnits="userSpaceOnUse"><g id="avklaring-h"><polygon id="avklaring-g" class="cls-1" points="132.62 15.78 151.59 15.78 151.59 34.92 132.62 34.92 132.62 15.78"/></g></mask><mask id="mask-5" x="37.71" y="33.49" width="54.78" height="63.46" maskUnits="userSpaceOnUse"><g id="avklaring-j"><path id="avklaring-i" class="cls-1" d="M85.92,59.17h0c0-13.3-9.48-24.08-21.19-24.08S43.5,45.87,43.5,59.17h0C43.5,70.53,37.71,77,37.71,77s5.72,7.09,27,7.09h0c21.27,0,27-7.09,27-7.09s-5.8-6.49-5.8-17.85"/></g></mask><mask id="mask-6" x="16.83" y="54.67" width="101.41" height="80.47" maskUnits="userSpaceOnUse"><g id="avklaring-l"><path id="avklaring-k" class="cls-1" d="M74.34,77.45c4.81,2.39,12.29,8.85,12.29,14.84v19.79H43.31V92.29c0-5.78,6.84-12,11.6-14.57l-.37.24c.82,1.37,3,7.44,9.93,7.44S74.6,78.88,74.6,77.61Z"/></g></mask><mask id="mask-7" x="41.87" y="77.5" width="45.62" height="32.66" maskUnits="userSpaceOnUse"><g id="avklaring-n"><polygon id="avklaring-m" class="cls-1" points="41.87 77.5 87.5 77.5 87.5 110.15 41.87 110.15 41.87 77.5"/></g></mask><mask id="mask-8" x="66.95" y="77.51" width="20.54" height="32.64" maskUnits="userSpaceOnUse"><g id="avklaring-p"><polygon id="avklaring-o" class="cls-1" points="66.95 77.51 87.5 77.51 87.5 110.15 66.95 110.15 66.95 77.51"/></g></mask></defs><title>Avklaring</title><path id="avklaring-a-2" data-name="avklaring-a" class="cls-2" d="M213.92,59.17h0c0-13.3-9.48-24.08-21.19-24.08S171.5,45.87,171.5,59.17h0c0,11.35-5.79,17.84-5.79,17.84s5.72,7.09,27,7.09h0c21.27,0,27-7.09,27-7.09s-5.8-6.49-5.8-17.85"/><g class="cls-3"><rect class="cls-4" x="165.71" y="33.49" width="54.78" height="63.46"/></g><path class="cls-5" d="M182.51,77.81c.81,1.3,3.11,24.13,10,24.13s10-23.26,10-24.47C192,71.46,182.51,77.81,182.51,77.81Z"/><path id="avklaring-c-2" data-name="avklaring-c" class="cls-1" d="M192.87,76.5H186.4c-3.49,0-15.09,8.26-15.09,15.79v19.79h43.32V92.29c0-7.53-11.8-15.79-15.29-15.79Z"/><g class="cls-6"><rect class="cls-7" x="144.83" y="54.67" width="101.41" height="80.47"/></g><path class="cls-8" d="M182.34,78c.83,1.37,4.59,8.17,10.13,12.37,5.51-4.13,10.35-11.45,10.35-12.72C192,71.28,182.34,78,182.34,78Z"/><path class="cls-9" d="M194.55,83.79V79.74l-.58,0h-2.83l-.58,0v4.05l.87.55-.8,4.4a11.12,11.12,0,0,0,1.84,1.61,16.52,16.52,0,0,0,1.86-1.53l-.65-4.48Z"/><path class="cls-1" d="M202.53,75.69a14.27,14.27,0,0,1-19.94.08c0,.23-.21,1.3-.21,1.54,0,2.85,4.56,6.5,7.49,8.89l1.7-6h2.06l1.64,6c2.74-2.3,7.45-6,7.45-8.89C202.72,77,202.57,76,202.53,75.69Z"/><path class="cls-5" d="M176.54,57s-.09.48-.19.4a1.33,1.33,0,0,0-1.84,1.29V64a1.36,1.36,0,0,0,1.34,1.39,1.28,1.28,0,0,0,.79-.27c1.8,8.53,8.2,14.55,15.84,14.57s14.06-6,15.88-14.52a1.35,1.35,0,0,0,.79.28A1.37,1.37,0,0,0,210.5,64v-5.3a1.36,1.36,0,0,0-1.34-1.38,1.28,1.28,0,0,0-.48.09c-17.22,2-23.23-9.61-23.74-9.61C184.94,47.83,177.74,54.53,176.54,57Z"/><path class="cls-10" d="M186.71,62.09c-1.14.09-1.47-1.65-1.12-2.78.06-.22.45-1.2,1.12-1.2a1.14,1.14,0,0,1,1,.63c.5,1.11.25,3.26-1,3.35m12.83,0c1.15.09,1.48-1.65,1.13-2.78-.07-.22-.45-1.2-1.12-1.2a1.14,1.14,0,0,0-1,.63c-.5,1.11-.25,3.26,1,3.35"/><path class="cls-11" d="M193.49,64.09c.68-.1,1.14,0,1.31.17.62.79.42,1.62-.65,2.31a2.11,2.11,0,0,1-1.75.3.39.39,0,0,0-.52.21.4.4,0,0,0,.2.53,2.84,2.84,0,0,0,2.49-.35c1.46-.93,1.79-2.32.84-3.51-.4-.51-1.11-.61-2-.46a.41.41,0,0,0-.33.46A.39.39,0,0,0,193.49,64.09Z"/><path class="cls-12" d="M198,70a2.85,2.85,0,0,1-.25.46,5.74,5.74,0,0,1-.84,1.06,5.29,5.29,0,0,1-4,1.53,6.07,6.07,0,0,1-4-1.54,5.84,5.84,0,0,1-.95-1.07c-.14-.21-.24-.37-.28-.45a.38.38,0,0,0-.53-.19.42.42,0,0,0-.18.55,4.2,4.2,0,0,0,.35.57,6.83,6.83,0,0,0,5.55,2.94,6,6,0,0,0,4.6-1.75,6.53,6.53,0,0,0,1-1.21,3.92,3.92,0,0,0,.31-.57.41.41,0,0,0-.21-.54A.4.4,0,0,0,198,70Z"/><path id="avklaring-e-2" data-name="avklaring-e" class="cls-2" d="M149.92,58h0c0-13.3-9.48-24.08-21.19-24.08S107.5,44.68,107.5,58h0c0,11.35-5.79,17.84-5.79,17.84s5.72,7.1,27,7.1h0c21.27,0,27-7.1,27-7.1s-5.8-6.49-5.8-17.85"/><g class="cls-13"><rect class="cls-4" x="101.71" y="32.3" width="54.78" height="63.46"/></g><path class="cls-5" d="M118.51,77.14c.81,1.32,3.11,24.44,10,24.44s10-23.55,10-24.78C128,70.72,118.51,77.14,118.51,77.14Z"/><path class="cls-14" d="M135.34,74.18H122.4c-3.49,0-15.09,8.64-15.09,16.51v20.69h43.32V90.69c0-7.87-11.8-16.51-15.29-16.51"/><path class="cls-15" d="M123.21,90.35a1,1,0,1,1-1-1.12,1,1,0,0,1,1,1.12m0,7.4a1,1,0,1,1-1-1.11,1,1,0,0,1,1,1.11m0,7.41a1,1,0,1,1-1-1.11,1,1,0,0,1,1,1.11"/><polyline class="cls-16" points="125.14 77.42 119.84 81.83 119.84 111.24"/><path class="cls-5" d="M112.54,56.08s-.09.47-.19.4a1.19,1.19,0,0,0-.49-.1,1.38,1.38,0,0,0-1.35,1.4v5.36a1.38,1.38,0,0,0,1.34,1.41,1.29,1.29,0,0,0,.79-.28c1.8,8.64,8.2,14.74,15.84,14.75s14.06-6.07,15.88-14.7a1.23,1.23,0,0,0,.79.28,1.38,1.38,0,0,0,1.35-1.4V57.84a1.38,1.38,0,0,0-1.34-1.41,1.29,1.29,0,0,0-.48.1c-17.22,2-23.23-9.74-23.74-9.74C120.94,46.79,113.74,53.58,112.54,56.08Z"/><path class="cls-10" d="M122.71,61.18c-1.14.09-1.47-1.65-1.12-2.79.06-.21.45-1.19,1.12-1.19a1.13,1.13,0,0,1,1,.62c.5,1.11.25,3.26-1,3.36m12.83,0c1.15.09,1.48-1.65,1.13-2.79-.07-.21-.45-1.19-1.12-1.19a1.13,1.13,0,0,0-1,.62c-.5,1.11-.25,3.26,1,3.36"/><path class="cls-11" d="M129.49,63.18c.68-.11,1.14,0,1.31.17.62.79.42,1.62-.65,2.3a2.11,2.11,0,0,1-1.75.3.4.4,0,0,0-.52.21.41.41,0,0,0,.2.54,2.84,2.84,0,0,0,2.49-.35c1.46-.93,1.79-2.32.84-3.52a2.08,2.08,0,0,0-2-.46.42.42,0,0,0-.33.47A.4.4,0,0,0,129.49,63.18Z"/><path class="cls-12" d="M134,69.13a3.36,3.36,0,0,1-.25.46,5.74,5.74,0,0,1-.84,1.06,5.25,5.25,0,0,1-4,1.52,6.07,6.07,0,0,1-4-1.54,6.14,6.14,0,0,1-1-1.06,4,4,0,0,1-.28-.46.39.39,0,0,0-.53-.18.41.41,0,0,0-.18.54,4.2,4.2,0,0,0,.35.57,6.57,6.57,0,0,0,1.06,1.21A6.91,6.91,0,0,0,128.88,73a6.05,6.05,0,0,0,4.6-1.76,6.17,6.17,0,0,0,1-1.2,3.92,3.92,0,0,0,.31-.57.41.41,0,0,0-.21-.54A.39.39,0,0,0,134,69.13Z"/><path class="cls-1" d="M117.48,17.2h23.37L144.53,41a45.21,45.21,0,0,0-15.33-3.13A45.84,45.84,0,0,0,113.81,41Z"/><g class="cls-17"><path class="cls-1" d="M151.59,25.35a9.49,9.49,0,1,0-9.49,9.57,9.53,9.53,0,0,0,9.49-9.57"/></g><path class="cls-1" d="M125.57,25.35a9.48,9.48,0,1,0-9.48,9.57,9.53,9.53,0,0,0,9.48-9.57"/><path class="cls-1" d="M138.53,17.57A9.49,9.49,0,1,0,129,27.14a9.53,9.53,0,0,0,9.49-9.57"/><path id="avklaring-i-2" data-name="avklaring-i" class="cls-2" d="M85.92,59.17h0c0-13.3-9.48-24.08-21.19-24.08S43.5,45.87,43.5,59.17h0C43.5,70.53,37.71,77,37.71,77s5.72,7.09,27,7.09h0c21.27,0,27-7.09,27-7.09s-5.8-6.49-5.8-17.85"/><g class="cls-18"><rect class="cls-4" x="37.71" y="33.49" width="54.78" height="63.46"/></g><path class="cls-5" d="M54.51,77.81c.81,1.3,3.11,24.13,10,24.13s10-23.26,10-24.47C64,71.46,54.51,77.81,54.51,77.81Z"/><path id="avklaring-k-2" data-name="avklaring-k" class="cls-19" d="M74.34,77.45c4.81,2.39,12.29,8.85,12.29,14.84v19.79H43.31V92.29c0-5.78,6.84-12,11.6-14.57l-.37.24c.82,1.37,3,7.44,9.93,7.44S74.6,78.88,74.6,77.61Z"/><g class="cls-20"><rect class="cls-7" x="16.83" y="54.67" width="101.41" height="80.47"/></g><path class="cls-5" d="M48.54,57s-.09.48-.19.4a1.33,1.33,0,0,0-1.84,1.29V64a1.36,1.36,0,0,0,1.34,1.39,1.28,1.28,0,0,0,.79-.27c1.8,8.53,8.2,14.55,15.84,14.57s14.06-6,15.88-14.52a1.35,1.35,0,0,0,.79.28A1.37,1.37,0,0,0,82.5,64v-5.3a1.36,1.36,0,0,0-1.34-1.38,1.28,1.28,0,0,0-.48.09c-17.22,2-23.23-9.61-23.74-9.61C56.94,47.83,49.74,54.53,48.54,57Z"/><path class="cls-10" d="M58.71,62.09c-1.14.09-1.47-1.65-1.12-2.78.06-.22.45-1.2,1.12-1.2a1.14,1.14,0,0,1,1,.63c.5,1.11.25,3.26-1,3.35m12.83,0c1.15.09,1.48-1.65,1.13-2.78-.07-.22-.45-1.2-1.12-1.2a1.14,1.14,0,0,0-1,.63c-.5,1.11-.25,3.26,1,3.35"/><path class="cls-11" d="M65.49,64.09c.68-.1,1.14,0,1.31.17.62.79.42,1.62-.65,2.31a2.11,2.11,0,0,1-1.75.3.39.39,0,0,0-.52.21.4.4,0,0,0,.2.53,2.84,2.84,0,0,0,2.49-.35c1.46-.93,1.79-2.32.84-3.51-.4-.51-1.11-.61-2-.46a.41.41,0,0,0-.33.46A.39.39,0,0,0,65.49,64.09Z"/><path class="cls-12" d="M70,70a2.85,2.85,0,0,1-.25.46,5.74,5.74,0,0,1-.84,1.06,5.29,5.29,0,0,1-4,1.53,6.07,6.07,0,0,1-4-1.54,5.84,5.84,0,0,1-1-1.07c-.14-.21-.24-.37-.28-.45a.38.38,0,0,0-.53-.19.42.42,0,0,0-.18.55,4.2,4.2,0,0,0,.35.57,6.83,6.83,0,0,0,5.55,2.94,6,6,0,0,0,4.6-1.75,6.53,6.53,0,0,0,1-1.21,3.92,3.92,0,0,0,.31-.57.41.41,0,0,0-.21-.54A.4.4,0,0,0,70,70Z"/><g class="cls-21"><path class="cls-22" d="M87.5,91.65v18.5H41.87V91.65c0-4.55,5.15-9.41,9.76-12.25a25,25,0,0,1,3.65-1.88h0l.07,0A16.22,16.22,0,0,0,61,80.13a15.32,15.32,0,0,0,7.45,0,15.93,15.93,0,0,0,5.44-2.58.94.94,0,0,1,.15.06,23.54,23.54,0,0,1,3.74,1.93c4.64,2.86,9.75,7.65,9.75,12.15"/></g><g class="cls-23"><path class="cls-24" d="M87.5,97.66v12.49H67l1.46-29.93v-.13a15.93,15.93,0,0,0,5.44-2.58.94.94,0,0,1,.15.06,24.4,24.4,0,0,1,3.74,1.93c0,1.32.12,17.11,9.75,18.16"/></g><path class="cls-24" d="M62.43,110.15H41.87V97.66c10-1.09,9.76-18.23,9.76-18.26a25,25,0,0,1,3.65-1.88l.07,0,.14,0-.13.06A16.22,16.22,0,0,0,61,80.13Z"/><path class="cls-24" d="M85,48c-.33-10.72-7.08-19.58-16-21.77V23H60.26v3.18c-8.95,2.19-15.71,11-16,21.77H42v4.22H87.18V48Z"/></svg>