<svg id="Layer_1" data-name="Layer 1" xmlns="http://www.w3.org/2000/svg" xmlns:xlink="http://www.w3.org/1999/xlink" viewBox="0 0 260 110"><defs><style>.cls-1{fill:#fff;}.cls-2{mask:url(#mask);}.cls-3{fill:#abb2ba;}.cls-4{fill:#506572;}.cls-5{fill:#efefef;}.cls-6{fill:#959ba5;}.cls-7{mask:url(#mask-2-2);}.cls-8{fill:none;stroke:#9bd0b0;stroke-width:0.81px;}.cls-9{fill:#9bd0b0;}.cls-10{fill:#6ab889;}.cls-11{mask:url(#mask-4);}.cls-12{fill:#50808b;}.cls-13{fill:#0067c5;}.cls-14{fill:#e4e4db;}.cls-15{fill:#8f9395;}.cls-16{mask:url(#mask-7);}.cls-17{fill:#333;}.cls-18{mask:url(#mask-8);}.Ncls-19{fill:#3e3832;}.cls-20{fill:#e7e5e2;}.cls-21{fill:#d8a25d;}.cls-22{mask:url(#mask-9);}.cls-23{fill:#635e59;}.cls-24{fill:#d1bfa3;}.cls-25{fill:#d19e9c;}</style><mask id="mask" x="0" y="0" width="260" height="111.2" maskUnits="userSpaceOnUse"><g id="mask-2"><rect id="path-1" class="cls-1" width="260" height="110"/></g></mask><mask id="mask-2-2" x="0" y="0" width="260" height="110" maskUnits="userSpaceOnUse"><g id="mask-2-3" data-name="mask-2"><rect id="path-1-2" data-name="path-1" class="cls-1" width="260" height="110"/></g></mask><mask id="mask-4" x="24.99" y="94.43" width="25.89" height="15.71" maskUnits="userSpaceOnUse"><g id="mask-6"><polygon id="path-5" class="cls-1" points="24.99 94.43 50.88 94.43 50.88 110.14 24.99 110.14 24.99 94.43"/></g></mask><mask id="mask-7" x="0" y="0" width="260" height="114.4" maskUnits="userSpaceOnUse"><g id="mask-2-7" data-name="mask-2"><rect id="path-1-6" data-name="path-1" class="cls-1" width="260" height="110"/></g></mask><mask id="mask-8" x="152.06" y="8.57" width="75.75" height="88.53" maskUnits="userSpaceOnUse"><g id="mask-8-2" data-name="mask-8"><path id="path-7" class="cls-1" d="M160.17,69.66a5.61,5.61,0,0,1-3.23-7.34A5.61,5.61,0,0,1,156.5,54a6.84,6.84,0,0,1-.05-.79,5.53,5.53,0,0,1,3-4.93c.15-.2.32-.4.49-.59a3.79,3.79,0,0,0-2.82-3.62,3.83,3.83,0,0,1,0-7.39,3.85,3.85,0,0,0,1.68-6.44c-2.78-2.76-.11-7.49,3.61-6.4a3.57,3.57,0,0,0,1.77.07,6.11,6.11,0,0,1-.06-.86,5.53,5.53,0,0,1,2.74-4.81,3.72,3.72,0,0,1,6.37-2.84,5.38,5.38,0,0,1,5-3.46,5.23,5.23,0,0,1,1.94.37,3.46,3.46,0,0,1,1.45-1.17,3.69,3.69,0,0,1,6.52-.23,3.68,3.68,0,0,0,6.5-.24,3.7,3.7,0,0,1,7,1.3,5.12,5.12,0,0,1,.56,0,5.39,5.39,0,0,1,5.05,3.61l.15-.09c3.24-2.16,7.15,1.56,5.28,5a3.8,3.8,0,0,0,3.44,5.64,3.82,3.82,0,0,1,2.12,7.07l-.29.2a5.51,5.51,0,0,1,3.81,5.28,5.62,5.62,0,0,1-1.36,3.66,3.47,3.47,0,0,1,.1.72,5.54,5.54,0,0,1,2.35,4.56A5.61,5.61,0,0,1,221.71,51a5.61,5.61,0,0,1,.74,1.34,3.86,3.86,0,0,1,.56,6.92,3.85,3.85,0,0,0,0,6.65c3.4,1.94,2,7.2-1.82,7.11a3.61,3.61,0,0,0-1.79.42,5.73,5.73,0,0,1,.23.7,5.55,5.55,0,0,1-1.34,5.3,3.72,3.72,0,0,1-5.4,4.51l-.1-.06a5.33,5.33,0,0,1-5.76,4.85A3.57,3.57,0,0,1,206,90.23a3.69,3.69,0,0,1-6.25,2,3.67,3.67,0,0,0-6.21,1.91,3.7,3.7,0,0,1-7.1.58c-.22.08-.44.16-.67.22a5.4,5.4,0,0,1-5.79-2.13l0,0c-2.57,2.92-7.31.33-6.4-3.5a3.81,3.81,0,0,0-4.79-4.57c-3.68,1.2-6.54-3.44-3.87-6.28l.11-.12a5.51,5.51,0,0,1-4.92-4.1,5.58,5.58,0,0,1,.4-4A3.24,3.24,0,0,1,160.17,69.66Z"/></g></mask><mask id="mask-9" x="123.24" y="36.13" width="139.69" height="110.25" maskUnits="userSpaceOnUse"><g id="mask-10"><path id="path-9" class="cls-1" d="M202.7,67.2c6.65,3.25,17,12,17,20.22v27H159.82v-27c0-7.88,9.46-16.35,16-19.86l-.51.32C176.47,69.75,179.52,78,189.06,78s14-8.88,14-10.62Z"/></g></mask></defs><title>Lønnstilskudd3</title><g id="Lønnstilskudd"><g id="Group-3"><g class="cls-2"><g id="Group"><g id="devices_-dataskjerm" data-name="devices/-dataskjerm"><g id="Group-2" data-name="Group"><path id="Fill-16" class="cls-3" d="M168.76,86v9.69a3.65,3.65,0,0,1-3.6,3.7h-105a3.65,3.65,0,0,1-3.6-3.7V86Z"/><path id="Fill-17" class="cls-4" d="M56.59,86V25.63a3.65,3.65,0,0,1,3.6-3.7h105a3.65,3.65,0,0,1,3.6,3.7V86Z"/><path id="Fill-18" class="cls-5" d="M60.2,82.28V27.39a1.87,1.87,0,0,1,1.85-1.89H163.31a1.87,1.87,0,0,1,1.84,1.89V82.28Z"/><polygon id="Fill-19" class="cls-3" points="99.53 109.37 125.83 109.37 125.83 99.34 99.53 99.34 99.53 109.37"/><polygon id="Fill-20" class="cls-3" points="89.39 111.2 135.97 111.2 135.97 107.95 89.39 107.95 89.39 111.2"/><path id="Fill-21" class="cls-6" d="M113.53,93.52a.85.85,0,1,1-.85-.88.86.86,0,0,1,.85.88"/></g></g></g></g><g class="cls-7"><path id="Stroke-1" class="cls-8" d="M38,66.39V96.45"/></g><g class="cls-7"><g id="Group-17"><path id="Fill-2" class="cls-9" d="M37.77,66.68c4.62-3.37,6.83-8.33,5.6-12.43a8.87,8.87,0,0,0-2.82-4.14,3,3,0,0,1-2.06-.86,3,3,0,0,1-.72-2.67,11.09,11.09,0,0,0-6.3,10.05,10.48,10.48,0,0,0,6.3,10.05"/><path id="Fill-4" class="cls-10" d="M37.77,66.68c4.62-3.37,6.83-8.33,5.6-12.43a8.87,8.87,0,0,0-2.82-4.14,3,3,0,0,1-2.06-.86,3,3,0,0,1-.72-2.67,4.14,4.14,0,0,0-.07.65c.06,3.26.07,19.45.07,19.45"/><path id="Fill-6" class="cls-9" d="M37.93,86.57a11.49,11.49,0,0,1-8.43,1.57c-5-1.22-8.71-6.54-8.49-13a12.76,12.76,0,0,1,13.2,2.25,12.24,12.24,0,0,1,3.72,9.15"/><path id="Fill-8" class="cls-10" d="M37.93,86.63,21,75.23a12.76,12.76,0,0,1,13.2,2.25,12.27,12.27,0,0,1,3.73,9.15"/><path id="Fill-10" class="cls-9" d="M37.59,77.81c.64-6.33,2.75-8.88,4.73-10,4.38-2.44,12.49-.25,12.49-.25l-1.31.68a10.66,10.66,0,0,1-3.22,8.48,11.14,11.14,0,0,1-12.69,1.07"/><path id="Fill-12" class="cls-10" d="M37.59,77.81c.64-6.33,2.75-8.88,4.73-10,4.38-2.44,12.49-.25,12.49-.25l-1.31.68c0,.63-15.91,9.55-15.91,9.55"/><g id="Group-16"><g class="cls-11"><path id="Fill-14" class="cls-12" d="M50.88,94.43H25l2.83,14.33a1.74,1.74,0,0,0,1.71,1.38h16.8a1.74,1.74,0,0,0,1.72-1.38Z"/></g></g></g></g><g class="cls-7"><g id="Group-2-2" data-name="Group-2"><path id="Fill-51" class="cls-13" d="M88.29,38a17,17,0,0,0-9.07,22.23l15.66-6.59Z"/><path id="Fill-52" class="cls-13" d="M110.52,47A17,17,0,0,0,88.29,38l6.59,15.65Z"/><path id="Fill-53" class="cls-14" d="M79.23,60.21a17,17,0,0,0,22.23,9.06L94.87,53.62Z"/><path id="Fill-54" class="cls-13" d="M94.88,53.62l6.58,15.65A17,17,0,0,0,110.52,47Z"/></g></g><g class="cls-7"><g id="_-dokumenter_-innhold_-tekst" data-name="⚙️/-dokumenter/-innhold/-tekst"><g id="Group-3-2" data-name="Group"><polygon id="Fill-60" class="cls-15" points="121.76 48.2 146.09 48.2 146.09 46.08 121.76 46.08 121.76 48.2"/><polygon id="Fill-61" class="cls-15" points="121.76 52.52 146.09 52.52 146.09 50.4 121.76 50.4 121.76 52.52"/><polygon id="Fill-62" class="cls-15" points="121.76 57.55 146 57.55 146 55.44 121.76 55.44 121.76 57.55"/><polygon id="Fill-63" class="cls-15" points="121.76 61.88 146 61.88 146 59.76 121.76 59.76 121.76 61.88"/><polygon id="Fill-64" class="cls-15" points="121.76 66.92 146 66.92 146 64.8 121.76 64.8 121.76 66.92"/><polygon id="Fill-65" class="cls-15" points="121.76 43.16 146.09 43.16 146.09 41.04 121.76 41.04 121.76 43.16"/></g></g></g><g class="cls-16"><g id="mennesker_NAV-ansatt_kvinne_-Frida" data-name="mennesker/NAV-ansatt/kvinne/-Frida"><g id="mennesker_kvinne_-forfra_-B" data-name="mennesker/kvinne/-forfra/-B"><g id="Group-2-3" data-name="Group-2"><g id="mennesker_kvinne_-hår_-krøllete-langt" data-name="mennesker/kvinne/⚙️/-hår/-krøllete-langt"><g id="hårfarge_-brunn" data-name="hårfarge/-brunn"><g id="Mask-10-2" data-name="Mask"><path id="path-7-2" data-name="path-7" class="cls-17" d="M160.17,69.66a5.61,5.61,0,0,1-3.23-7.34A5.61,5.61,0,0,1,156.5,54a6.84,6.84,0,0,1-.05-.79,5.53,5.53,0,0,1,3-4.93c.15-.2.32-.4.49-.59a3.79,3.79,0,0,0-2.82-3.62,3.83,3.83,0,0,1,0-7.39,3.85,3.85,0,0,0,1.68-6.44c-2.78-2.76-.11-7.49,3.61-6.4a3.57,3.57,0,0,0,1.77.07,6.11,6.11,0,0,1-.06-.86,5.53,5.53,0,0,1,2.74-4.81,3.72,3.72,0,0,1,6.37-2.84,5.38,5.38,0,0,1,5-3.46,5.23,5.23,0,0,1,1.94.37,3.46,3.46,0,0,1,1.45-1.17,3.69,3.69,0,0,1,6.52-.23,3.68,3.68,0,0,0,6.5-.24,3.7,3.7,0,0,1,7,1.3,5.12,5.12,0,0,1,.56,0,5.39,5.39,0,0,1,5.05,3.61l.15-.09c3.24-2.16,7.15,1.56,5.28,5a3.8,3.8,0,0,0,3.44,5.64,3.82,3.82,0,0,1,2.12,7.07l-.29.2a5.51,5.51,0,0,1,3.81,5.28,5.62,5.62,0,0,1-1.36,3.66,3.47,3.47,0,0,1,.1.72,5.54,5.54,0,0,1,2.35,4.56A5.61,5.61,0,0,1,221.71,51a5.61,5.61,0,0,1,.74,1.34,3.86,3.86,0,0,1,.56,6.92,3.85,3.85,0,0,0,0,6.65c3.4,1.94,2,7.2-1.82,7.11a3.61,3.61,0,0,0-1.79.42,5.73,5.73,0,0,1,.23.7,5.55,5.55,0,0,1-1.34,5.3,3.72,3.72,0,0,1-5.4,4.51l-.1-.06a5.33,5.33,0,0,1-5.76,4.85A3.57,3.57,0,0,1,206,90.23a3.69,3.69,0,0,1-6.25,2,3.67,3.67,0,0,0-6.21,1.91,3.7,3.7,0,0,1-7.1.58c-.22.08-.44.16-.67.22a5.4,5.4,0,0,1-5.79-2.13l0,0c-2.57,2.92-7.31.33-6.4-3.5a3.81,3.81,0,0,0-4.79-4.57c-3.68,1.2-6.54-3.44-3.87-6.28l.11-.12a5.51,5.51,0,0,1-4.92-4.1,5.58,5.58,0,0,1,.4-4A3.24,3.24,0,0,1,160.17,69.66Z"/></g><g class="cls-18"><g id="mennesker_hårfarge_-sort" data-name="mennesker/⚙️/hårfarge/-sort"><g id="hårfarge_-sort" data-name="hårfarge/-sort"><rect class="cls-19" x="152.06" y="8.57" width="75.75" height="86.47"/></g></g></g></g></g><g id="Group-4" data-name="Group"><path id="Combined-Shape" class="cls-20" d="M175.34,67.74c1.13,1.8,4.31,33.44,13.86,33.44S203.06,69,203.06,67.28C188.44,59,175.34,67.74,175.34,67.74Z"/><g id="_Kropp" data-name="Kropp"><g id="Group-5" data-name="Group"><g id="_20_-Blå" data-name="+20/-Blå"><g id="Mask-11" data-name="Mask"><path id="path-9-2" data-name="path-9" class="cls-21" d="M202.7,67.2c6.65,3.25,17,12,17,20.22v27H159.82v-27c0-7.88,9.46-16.35,16-19.86l-.51.32C176.47,69.75,179.52,78,189.06,78s14-8.88,14-10.62Z"/></g><g class="cls-22"><g id="_--_" data-name="--↳"><g id="Fill-46"><polygon class="cls-10" points="123.23 146.38 262.93 146.38 262.93 36.13 123.23 36.13 123.23 146.38"/></g></g></g></g></g></g><path id="Combined-Shape-2" data-name="Combined-Shape" class="cls-20" d="M191.75,26.22a4.34,4.34,0,0,0,8.53.59,4.74,4.74,0,0,1-.17,1.38c-1.29,4.66,5.34,8.25,8.6,4.77a2.39,2.39,0,0,1,2,.18A32.08,32.08,0,0,1,212,39.51a1.69,1.69,0,0,1,.33,0,1.85,1.85,0,0,1,1.8,1.94v7a1.84,1.84,0,0,1-1.79,1.94,1.52,1.52,0,0,1-1-.38c0,.11-.05.21-.08.31a26.29,26.29,0,0,1-10.45,16.22,20.08,20.08,0,0,1-11.61,3.79,19.45,19.45,0,0,1-8.47-2c-6.78-3-12-9.72-13.8-18.37a1.54,1.54,0,0,1-1,.38,1.74,1.74,0,0,1-1.66-1.94V41.11c2.13,1.75,6.8,1.23,7.66-2.34a4.44,4.44,0,0,1,7.59-2.1c3.25,3.48,8.84.14,7.55-4.52A4.62,4.62,0,0,1,191.75,26.22Z"/></g><g id="mennesker_kvinne_ansikt-forfra_-glad" data-name="mennesker/kvinne/⚙️/ansikt-forfra/-glad"><g id="Group-6" data-name="Group"><path id="Fill-42" class="cls-23" d="M181.14,45.64c-1.58.12-2-2.17-1.55-3.67.09-.28.62-1.57,1.55-1.57a1.54,1.54,0,0,1,1.39.83c.69,1.45.35,4.28-1.39,4.41"/><path id="Fill-44" class="cls-23" d="M198.87,45.64c1.59.12,2-2.17,1.56-3.67-.09-.28-.62-1.57-1.55-1.57a1.58,1.58,0,0,0-1.4.83c-.68,1.45-.34,4.28,1.39,4.41"/><path id="Stroke-46" class="cls-24" d="M190.51,48.27c.94-.14,1.57-.05,1.8.22.87,1,.59,2.13-.89,3a3.06,3.06,0,0,1-2.42.39.55.55,0,0,0-.72.28.53.53,0,0,0,.28.71,4.1,4.1,0,0,0,3.44-.47c2-1.22,2.47-3,1.16-4.62-.55-.66-1.53-.79-2.81-.6a.53.53,0,0,0-.46.61A.54.54,0,0,0,190.51,48.27Z"/><path id="Stroke-48" class="cls-25" d="M196.77,56.09a4.32,4.32,0,0,1-.35.6,7.32,7.32,0,0,1-1.16,1.39,7.49,7.49,0,0,1-5.56,2,8.66,8.66,0,0,1-5.51-2,8,8,0,0,1-1.31-1.39,4.45,4.45,0,0,1-.38-.6.56.56,0,0,0-.74-.25.54.54,0,0,0-.25.72,5.91,5.91,0,0,0,.48.75,8.67,8.67,0,0,0,1.48,1.58,9.71,9.71,0,0,0,6.2,2.29A8.59,8.59,0,0,0,196,58.85a8.72,8.72,0,0,0,1.33-1.58,8.53,8.53,0,0,0,.43-.75.54.54,0,0,0-.29-.71A.55.55,0,0,0,196.77,56.09Z"/></g></g></g></g></g></g></g></g></svg>