<?xml version="1.0" encoding="UTF-8"?>
<svg width="56px" height="56px" viewBox="0 0 56 56" version="1.1" xmlns="http://www.w3.org/2000/svg" xmlns:xlink="http://www.w3.org/1999/xlink">
    <!-- Generator: Sketch 52.4 (67378) - http://www.bohemiancoding.com/sketch -->
    <title>Element/icon/ feedback/ check blå</title>
    <desc>Created with Sketch.</desc>
    <g id="Ta-kontakt-med-NAV-Bærum" stroke="none" stroke-width="1" fill="none" fill-rule="evenodd">
        <g id="Mobil---Snakk-med-NAV-Bærum---Suksess" transform="translate(-160.000000, -2395.000000)">
            <g id="Element/icon/-feedback/-check-blå" transform="translate(160.000000, 2395.000000)">
                <g id="check-circle-2">
                    <path d="M28,0 C12.5603333,0 0,12.5626667 0,28 C0,43.4373333 12.5603333,56 28,56 C43.4373333,56 56,43.4373333 56,28 C56,12.5626667 43.4373333,0 28,0 Z M40.4623333,20.6873333 L22.9623333,37.0206667 C22.7383333,37.2283333 22.4513333,37.3333333 22.1666667,37.3333333 C21.8656667,37.3333333 21.5693333,37.219 21.3406667,36.9926667 L15.5073333,31.1593333 C15.0523333,30.7043333 15.0523333,29.9646667 15.5073333,29.5096667 C15.9623333,29.0546667 16.702,29.0546667 17.157,29.5096667 L22.1923333,34.545 L38.8686667,18.9816667 C39.3376667,18.543 40.0773333,18.564 40.5183333,19.0353333 C40.9593333,19.5066667 40.9336667,20.2463333 40.4623333,20.6873333 Z" id="Shape" fill="#0067C5" fill-rule="nonzero"></path>
                    <path d="M40.4623333,20.6873333 L22.9623333,37.0206667 C22.7383333,37.2283333 22.4513333,37.3333333 22.1666667,37.3333333 C21.8656667,37.3333333 21.5693333,37.219 21.3406667,36.9926667 L15.5073333,31.1593333 C15.0523333,30.7043333 15.0523333,29.9646667 15.5073333,29.5096667 C15.9623333,29.0546667 16.702,29.0546667 17.157,29.5096667 L22.1923333,34.545 L38.8686667,18.9816667 C39.3376667,18.543 40.0773333,18.564 40.5183333,19.0353333 C40.9593333,19.5066667 40.9336667,20.2463333 40.4623333,20.6873333 Z" id="Path" fill="#FFFFFF"></path>
                </g>
            </g>
        </g>
    </g>
</svg>