<svg id="Layer_1" data-name="Layer 1" xmlns="http://www.w3.org/2000/svg" xmlns:xlink="http://www.w3.org/1999/xlink" viewBox="0 0 260 110"><defs><style>.cls-1{fill:#fff;}.cls-2{fill:#e57f68;}.cls-3{mask:url(#mask);}.cls-4{fill:#8b5f26;}.cls-5{fill:#e7e5e2;}.cls-6{fill:#0f5fa9;}.cls-7{fill:#3c84c5;}.cls-8{fill:#d19e9c;}.cls-9{fill:#635e59;}.cls-10{fill:#d1bfa3;}.cls-11{fill:#d8a25d;}.cls-12{mask:url(#mask-2-2);}.cls-13{fill:#99bdcd;}.cls-14{fill:#f6b873;}.cls-15{mask:url(#mask-3);}.cls-16{fill:#3e3832;}.cls-17{fill:#593a32;}.cls-18{fill:#85817f;}.cls-19{mask:url(#mask-4-2);}.cls-20{fill:#9bd0b0;}.cls-21{fill:#6ab889;}.cls-22{mask:url(#mask-5);}.cls-23{fill:#50808b;}.cls-24{fill:#585b5c;}</style><mask id="mask" x="177.14" y="4.75" width="70" height="84" maskUnits="userSpaceOnUse"><g id="mask-2"><path id="path-1" class="cls-1" d="M238.73,38.74h-.06c0-17.6-12.11-31.86-27.06-31.86s-27.07,14.26-27.07,31.86v0c0,15-7.4,23.62-7.4,23.62s7.31,9.39,34.47,9.39h0c27.17,0,34.47-9.39,34.47-9.39s-7.4-8.6-7.4-23.64"/></g></mask><mask id="mask-2-2" x="36.85" y="31.96" width="140" height="111" maskUnits="userSpaceOnUse"><g id="mask-4"><path id="path-3" class="cls-1" d="M96.55,63.54c-6.66,3.5-16.37,12.06-16.37,20V98.68a12,12,0,0,0,12,12h48V83.54c0-7.63-8.79-15.81-15.32-19.56-1.2,2-4.36,10.12-14,10.12S96.75,65.55,96.55,63.54Z"/></g></mask><mask id="mask-3" x="72.14" y="-23.99" width="77" height="88" maskUnits="userSpaceOnUse"><g id="mask-6"><path id="path-5" class="cls-1" d="M133.46,41q0-8.09-4.39-12.22s1.05,4.73.32,3.75c-4.11-5.56-14.63-.64-18.58-7.82-.5,3.95,4.49,5.14,4.49,5.14-4,.77-7.42-.87-8.36-2.81-.31,1.58-.43,2.64,1,3.72-4.88-.94-3.9-4.39-3.9-4.39-.69,4.57-7.92,3-7.92,10.44l-.24,6.58c0,.25-2.41,1.21-4.86.72.08-.57-.76-1.08-2.51-1.55q-.36.33-.47-5.3C87.68,20,97.18,8.42,110.26,8.42c12.48,0,23.16,8.82,23.15,24.06C133.68,33.94,133.46,41.06,133.46,41Z"/></g></mask><mask id="mask-4-2" x="69.61" y="1.52" width="76" height="89" maskUnits="userSpaceOnUse"><g id="mask-8"><path id="path-7" class="cls-1" d="M119.78,47.59c-3.19,0-4.57,1-8.58,2C96.81,53,93.75,40.37,92.85,39.77c-1.5-1.42-2.18.88-2,1.79,4.65,20.36,20.67,22.84,29,22.84,8.61,0,14.88-12.31,13.44-27-.55,3.05-1.54,13.36-7.33,11.34C121.49,47.15,123,47.59,119.78,47.59Zm7,6.11c0,1.9-3.08,3.45-6.88,3.45S113,55.6,113,53.7s3.08-4.58,6.88-4.58S126.73,51.79,126.73,53.7Z"/></g></mask><mask id="mask-5" x="33.16" y="93.41" width="26.96" height="16.68" maskUnits="userSpaceOnUse"><g id="mask-10"><polygon id="path-9" class="cls-1" points="33.16 93.41 60.12 93.41 60.12 110.09 33.16 110.09 33.16 93.41"/></g></mask></defs><title>Mentor</title><g id="Mentor"><g id="Group"><g id="mennesker_NAV-ansatt_kvinne_-Frida" data-name="mennesker/NAV-ansatt/kvinne/-Frida"><g id="mennesker_kvinne_-sideprofil_-A" data-name="mennesker/kvinne/-sideprofil/-A"><g id="Group-2" data-name="Group"><g id="mennesker_kvinne_-hår_-halvlangt" data-name="mennesker/kvinne/⚙️/-hår/-halvlangt"><g id="hårfarge_-brunn" data-name="hårfarge/-brunn"><g id="Mask-6-2" data-name="Mask"><path id="path-1-2" data-name="path-1" class="cls-2" d="M238.73,38.74h-.06c0-17.6-12.11-31.86-27.06-31.86s-27.07,14.26-27.07,31.86v0c0,15-7.4,23.62-7.4,23.62s7.31,9.39,34.47,9.39h0c27.17,0,34.47-9.39,34.47-9.39s-7.4-8.6-7.4-23.64"/></g><g class="cls-3"><g id="mennesker_hårfarge_-brunn" data-name="mennesker/⚙️/hårfarge/-brunn"><g id="hårfarge_-brunn-2" data-name="hårfarge/-brunn"><rect class="cls-4" x="177.14" y="4.75" width="70" height="84"/></g></g></g></g></g><path id="Fill-160-Copy-2" class="cls-5" d="M229.44,46.4c-.12-.23-5-2.67-7.12-17.34-9.51,7.36-28.76,4.24-32.69,8.2,0,.28-2.94,15.19,6.63,23.56,1.55,1.36,3.89,2,3.74,2.52a25,25,0,0,0-3.19,2s4.51,25.86,14.87,25.86,14.47-26.92,14.47-26.92-2.88-1.27-2.65-2.39S228,55.16,228,55.16a21,21,0,0,0,5-2.71c1.78-1.51,1.42-4.74,0-5.73A4.44,4.44,0,0,0,229.44,46.4Z"/><g id="mennesker_kropp_sideprofil_-skjorte" data-name="mennesker/⚙️/kropp/sideprofil/-skjorte"><g id="kropp_sideprofil_-skjorte" data-name="kropp/sideprofil/-skjorte"><path id="Fill-18-Copy" class="cls-6" d="M212.22,84.59l-7.4-19.15a9.22,9.22,0,0,1-4.56-2.16C194,66.18,183.72,75,183.72,83.38v26.75h45a12,12,0,0,0,12-12V83.38c0-8.61-11-17.76-17.13-20.36a10.65,10.65,0,0,1-3.94,2.33Z"/><path id="Fill-21-Copy" class="cls-7" d="M199.48,62.67c-1.17.68-2,1.24-2,1.24-.18,7.8,6.92,15.66,6.92,15.66l1.44-5L211.22,85l2.89.09,5-9.45,2,5.31c6.85-12.11,5.8-17.21,5.8-17.21-.61-.53-2.07-.84-2.7-1.26a18.58,18.58,0,0,1-5.56,3.22q-2,5.51-6.11,16.52l-6.85-16.62A14.77,14.77,0,0,1,199.48,62.67Z"/></g></g><g id="mennesker_kvinne_ansikt-profil_-blid" data-name="mennesker/kvinne/⚙️/ansikt-profil/-blid"><g id="Group-2-Copy"><path id="Stroke-223" class="cls-8" d="M210.34,52.84a4.37,4.37,0,0,1-.2.41,4.88,4.88,0,0,1-5.41,2.28,3.07,3.07,0,0,1-2.28-1.47A4.51,4.51,0,0,1,202,53a3.65,3.65,0,0,1-.1-.46.53.53,0,0,0-.59-.47.54.54,0,0,0-.46.6,4.84,4.84,0,0,0,.74,2,4.1,4.1,0,0,0,3,2A6.2,6.2,0,0,0,210.16,55a5,5,0,0,0,1.17-1.76.54.54,0,0,0-.31-.69A.53.53,0,0,0,210.34,52.84Z"/><path id="Fill-224" class="cls-9" d="M201.11,44c1.13.38,1.94-1.75,1.92-3.27,0-.29-.11-1.61-.79-1.77a1.19,1.19,0,0,0-1.19.56c-.81,1.29-1.18,4.06.06,4.48"/><path id="Fill-225" class="cls-9" d="M210.68,44.2c1.39.23,2-2,1.67-3.49-.06-.29-.42-1.6-1.24-1.66a1.36,1.36,0,0,0-1.3.7c-.73,1.38-.66,4.19.87,4.45"/><path id="Stroke-65-Copy" class="cls-10" d="M202.67,44.52a2.73,2.73,0,0,1-.42.3,2.46,2.46,0,0,1-1.7.31l-.12,0c-.84-.12-1.41,0-1.62.23-.82,1-.56,2.1.85,3a2.82,2.82,0,0,0,2.3.39.52.52,0,0,1,.69.27.54.54,0,0,1-.27.7,3.77,3.77,0,0,1-3.27-.46c-1.92-1.21-2.36-3-1.11-4.56a2.65,2.65,0,0,1,2.58-.61l.14,0a1.5,1.5,0,0,0,1-.18,1.44,1.44,0,0,0,.25-.18.5.5,0,0,1,.73,0A.53.53,0,0,1,202.67,44.52Z"/></g></g></g></g></g><g id="mennesker_mann_-sideprofil_-A" data-name="mennesker/mann/-sideprofil/-A"><g id="Group-3" data-name="Group"><path id="Fill-1-Copy" class="cls-5" d="M93.26,53a.7.7,0,0,0,.43-.87l-2.26-8.43a1.67,1.67,0,1,0-3.2.86l2,7.31a1.79,1.79,0,0,0,2.09,1.39Z"/><path id="Fill-5-Copy" class="cls-5" d="M96.86,63.58C95.72,64.42,99,83.07,112,83.09c12.55,0,13.05-18.2,13-19.06a18.62,18.62,0,0,0-2.12-.87,6,6,0,0,0,3.9-1.72c4-4.48,6.81-16.39,6.81-23.35,0-14.54-8.19-26.33-21-26.33S89.45,23.55,89.45,38.09c0,7.43,2.16,12.83,6.12,16.87a11.55,11.55,0,0,1,3.25,7.51C98.16,62.89,97.54,63.16,96.86,63.58Z"/></g><g id="mennesker_kropp_sideprofil_-rundt-hals" data-name="mennesker/⚙️/kropp/sideprofil/-rundt-hals"><g id="kropp_sideprofil_-rundt-hals" data-name="kropp/sideprofil/-rundt-hals"><g id="_20_-Blå" data-name="+20/-Blå"><g id="Mask-7" data-name="Mask"><path id="path-3-2" data-name="path-3" class="cls-11" d="M96.55,63.54c-6.66,3.5-16.37,12.06-16.37,20V98.68a12,12,0,0,0,12,12h48V83.54c0-7.63-8.79-15.81-15.32-19.56-1.2,2-4.36,10.12-14,10.12S96.75,65.55,96.55,63.54Z"/></g><g class="cls-12"><g id="_-60_-Dyp-blå" data-name="-60/-Dyp-blå"><g id="_farge_-Dyp-blå_-60" data-name="⚙️/farge/-Dyp-blå/-60"><polygon id="Fill-22" class="cls-13" points="176.85 142.97 36.85 142.97 36.85 31.96 176.85 31.96 176.85 142.97"/></g></g></g></g></g></g><g id="mennesker_mann_-hår_-sideprofil_-halvlangt" data-name="mennesker/mann/⚙️/-hår/-sideprofil/-halvlangt"><g id="g_hårfarge_-brunn" data-name="g/hårfarge/-brunn"><g id="Mask-8-2" data-name="Mask"><path id="path-5-2" data-name="path-5" class="cls-14" d="M133.46,41q0-8.09-4.39-12.22s1.05,4.73.32,3.75c-4.11-5.56-14.63-.64-18.58-7.82-.5,3.95,4.49,5.14,4.49,5.14-4,.77-7.42-.87-8.36-2.81-.31,1.58-.43,2.64,1,3.72-4.88-.94-3.9-4.39-3.9-4.39-.69,4.57-7.92,3-7.92,10.44l-.24,6.58c0,.25-2.41,1.21-4.86.72.08-.57-.76-1.08-2.51-1.55q-.36.33-.47-5.3C87.68,20,97.18,8.42,110.26,8.42c12.48,0,23.16,8.82,23.15,24.06C133.68,33.94,133.46,41.06,133.46,41Z"/></g><g class="cls-15"><g id="mennesker_hårfarge_-sort" data-name="mennesker/⚙️/hårfarge/-sort"><g id="hårfarge_-sort" data-name="hårfarge/-sort"><rect class="cls-16" x="72.14" y="-23.99" width="77" height="88"/></g></g></g></g></g><g id="mennesker_mann_ansikt-profil_-blid" data-name="mennesker/mann/⚙️/ansikt-profil/-blid"><g id="Group-2-Copy-2" data-name="Group-2-Copy"><path id="Stroke-223-2" data-name="Stroke-223" class="cls-17" d="M115.62,50.56c0,.07.1.22.21.42a5,5,0,0,0,.78,1,5.67,5.67,0,0,0,5,1.38,3.3,3.3,0,0,0,2.43-1.54,4.11,4.11,0,0,0,.51-1.11,3.23,3.23,0,0,0,.12-.49.56.56,0,0,1,1.12.14,5.22,5.22,0,0,1-.79,2.06,4.42,4.42,0,0,1-3.24,2,6.78,6.78,0,0,1-6-1.69A5.22,5.22,0,0,1,114.56,51a.56.56,0,0,1,.33-.72A.57.57,0,0,1,115.62,50.56Z"/><path id="Fill-224-2" data-name="Fill-224" class="cls-9" d="M125.49,40.25c-1.21.4-2.08-1.81-2-3.39,0-.3.11-1.68.84-1.84a1.29,1.29,0,0,1,1.27.58c.87,1.34,1.27,4.22-.06,4.65"/><path id="Fill-225-2" data-name="Fill-225" class="cls-9" d="M115.26,40.48c-1.49.24-2.11-2.06-1.79-3.62.06-.3.45-1.66,1.33-1.73a1.48,1.48,0,0,1,1.39.73c.78,1.44.71,4.35-.93,4.62"/><path id="Stroke-65-Copy-2" data-name="Stroke-65-Copy" class="cls-10" d="M123.83,40.81a2.24,2.24,0,0,0,.44.32,2.65,2.65,0,0,0,1.81.32l.13,0c.91-.13,1.52,0,1.74.24.88,1.06.6,2.18-.91,3.1a3.09,3.09,0,0,1-2.46.41.57.57,0,0,0-.74.28.55.55,0,0,0,.29.72,4.13,4.13,0,0,0,3.5-.47c2.05-1.26,2.52-3.13,1.19-4.74-.55-.66-1.51-.81-2.76-.63l-.16,0a1.62,1.62,0,0,1-1.06-.19,1.2,1.2,0,0,1-.27-.19.57.57,0,0,0-.79,0A.55.55,0,0,0,123.83,40.81Z"/></g></g><g id="mennesker_mann_-skjegg_-profil_-kort" data-name="mennesker/mann/⚙️/-skjegg/-profil/-kort"><g id="hårfarge_-brunn-3" data-name="hårfarge/-brunn"><g id="Mask-9" data-name="Mask"><path id="path-7-2" data-name="path-7" class="cls-18" d="M119.78,47.59c-3.19,0-4.57,1-8.58,2C96.81,53,93.75,40.37,92.85,39.77c-1.5-1.42-2.18.88-2,1.79,4.65,20.36,20.67,22.84,29,22.84,8.61,0,14.88-12.31,13.44-27-.55,3.05-1.54,13.36-7.33,11.34C121.49,47.15,123,47.59,119.78,47.59Zm7,6.11c0,1.9-3.08,3.45-6.88,3.45S113,55.6,113,53.7s3.08-4.58,6.88-4.58S126.73,51.79,126.73,53.7Z"/></g><g class="cls-19"><g id="mennesker_hårfarge_-sort-2" data-name="mennesker/⚙️/hårfarge/-sort"><g id="hårfarge_-sort-2" data-name="hårfarge/-sort"><rect class="cls-16" x="69.61" y="1.52" width="76" height="89"/></g></g></g></g></g></g></g><g id="Group-17"><path id="Fill-2" class="cls-20" d="M46.47,64c4.81-3.57,7.11-8.84,5.82-13.19a9.29,9.29,0,0,0-2.93-4.4,3.09,3.09,0,0,1-2.15-.91,3.23,3.23,0,0,1-.74-2.84,11.73,11.73,0,0,0-6.56,10.67A11.09,11.09,0,0,0,46.47,64"/><path id="Fill-4" class="cls-21" d="M46.47,64c4.81-3.57,7.11-8.84,5.82-13.19a9.29,9.29,0,0,0-2.93-4.4,3.09,3.09,0,0,1-2.15-.91,3.23,3.23,0,0,1-.74-2.84,3.66,3.66,0,0,0-.07.7c.05,3.46.07,20.64.07,20.64"/><path id="Fill-6" class="cls-20" d="M46.63,85.06a11.69,11.69,0,0,1-8.78,1.68C32.69,85.43,28.78,79.79,29,73a13.11,13.11,0,0,1,13.75,2.39,13.17,13.17,0,0,1,3.87,9.71"/><path id="Fill-8" class="cls-21" d="M46.63,85.13,29,73a13.12,13.12,0,0,1,13.75,2.4,13.19,13.19,0,0,1,3.88,9.71"/><path id="Fill-10" class="cls-20" d="M46.28,75.77c.66-6.72,2.86-9.43,4.92-10.6,4.56-2.59,13-.26,13-.26l-1.36.72c0,.66.35,5.61-3.36,9a11.41,11.41,0,0,1-13.21,1.14"/><path id="Fill-12" class="cls-21" d="M46.28,75.77c.66-6.72,2.86-9.43,4.92-10.6,4.56-2.59,13-.26,13-.26l-1.36.72c0,.66-16.57,10.14-16.57,10.14"/><g id="Group-16"><g class="cls-22"><path id="Fill-14" class="cls-23" d="M60.12,93.41h-27l2.94,15.21a1.83,1.83,0,0,0,1.79,1.47H55.38a1.83,1.83,0,0,0,1.79-1.47Z"/></g></g></g><path id="Fill-62-Copy" class="cls-24" d="M188.4,105.39H135.61A3.55,3.55,0,0,1,132,101.9V73.49A3.55,3.55,0,0,1,135.61,70H188.4A3.55,3.55,0,0,1,192,73.49V101.9a3.55,3.55,0,0,1-3.61,3.49"/><path id="Fill-84-Copy" class="cls-24" d="M189.87,110.16H134.14A2.1,2.1,0,0,1,132,108.1v0a2.11,2.11,0,0,1,2.14-2.07h55.73a2.11,2.11,0,0,1,2.14,2.07v0a2.1,2.1,0,0,1-2.14,2.06"/></g></svg>