<svg id="Layer_1" data-name="Layer 1" xmlns="http://www.w3.org/2000/svg" xmlns:xlink="http://www.w3.org/1999/xlink" viewBox="0 0 260 110"><defs><style>.cls-1{fill:#fff;}.cls-2{mask:url(#mask);}.cls-3{fill:#e57f68;}.cls-4{mask:url(#mask-2-2);}.cls-5{fill:#8b5f26;}.cls-6{fill:#e7e5e2;}.cls-7{fill:#d8a25d;}.cls-8{mask:url(#mask-3);}.cls-9{fill:#c86151;}.cls-10{fill:#d19e9c;}.cls-11{fill:#635e59;}.cls-12{fill:#d1bfa3;}.cls-13{mask:url(#mask-4-2);}.cls-14{fill:#0c5ea8;}.cls-15{fill:#cdd1d1;}.cls-16{fill:#709caa;}.cls-17{fill:#f6b873;}.cls-18{mask:url(#mask-5);}.cls-19{fill:#593a32;}.cls-20{fill:#85817f;}.cls-21{mask:url(#mask-6-2);}.cls-22{fill:#50808b;}.cls-23{fill:#585b5c;}.cls-24{fill:none;stroke:#585b5c;stroke-linecap:round;stroke-linejoin:round;stroke-width:4.54px;}</style><mask id="mask" x="0" y="0" width="260" height="112.66" maskUnits="userSpaceOnUse"><g id="mask-2"><rect id="path-1" class="cls-1" width="260" height="110"/></g></mask><mask id="mask-2-2" x="162.82" y="6.66" width="73.23" height="83.61" maskUnits="userSpaceOnUse"><g id="mask-4"><path id="path-3" class="cls-1" d="M226.7,40.52h0c0-17.53-12.57-31.75-28.08-31.75S170.5,23,170.5,40.52h0c0,15-7.68,23.53-7.68,23.53s7.58,9.36,35.75,9.36h.06c28.17,0,35.75-9.36,35.75-9.36s-7.68-8.56-7.68-23.54"/></g></mask><mask id="mask-3" x="133.73" y="34.78" width="137.37" height="105.44" maskUnits="userSpaceOnUse"><g id="mask-6"><path id="path-5" class="cls-1" d="M211.71,64.6c6.52,3.12,16.66,11.58,16.66,19.42v25.9H169.63V84c0-7.57,9.28-15.7,15.73-19.07-.33.19-.5.31-.5.31C186,67.05,189,75,198.32,75s13.73-8.53,13.73-10.2Z"/></g></mask><mask id="mask-4-2" x="17.84" y="32.91" width="143.44" height="111.57" maskUnits="userSpaceOnUse"><g id="mask-8"><path id="path-7" class="cls-1" d="M92.84,63.24h9.22c5,0,21.5,11.48,21.5,21.93v27.49H61.83V85.17c0-10.45,16.81-21.93,21.78-21.93Z"/></g></mask><mask id="mask-5" x="53.49" y="-24.31" width="79.25" height="89.59" maskUnits="userSpaceOnUse"><g id="mask-10"><path id="path-9" class="cls-1" d="M116.62,41.58q-.06-8.19-4.51-12.39s1.07,4.8.32,3.8c-4.23-5.64-15.05-.65-19.11-7.93-.52,4,4.61,5.22,4.61,5.22-4.09.78-7.63-.88-8.59-2.86-.32,1.61-.44,2.68,1,3.78-5-1-4-4.46-4-4.46-.72,4.64-8.15,3-8.15,10.6L77.91,44c0,.25-2.48,1.22-5,.72q.12-.85-2.58-1.56-.37.32-.49-5.38C69.53,20.29,79.3,8.58,92.75,8.58c12.84,0,23.82,9,23.81,24.41C116.84,34.47,116.62,41.7,116.62,41.58Z"/></g></mask><mask id="mask-6-2" x="50.94" y="1.46" width="78.25" height="90.58" maskUnits="userSpaceOnUse"><g id="mask-12"><path id="path-11" class="cls-1" d="M102.43,48.67c-3.3,0-4.72,1.06-8.88,2-14.89,3.53-18.06-9.45-19-10.07-1.56-1.45-2.26.9-2,1.84C77.33,63.35,93.91,65.9,102.58,65.9c8.92,0,15.41-12.62,13.92-27.67-.58,3.12-1.6,13.69-7.59,11.62C104.21,48.22,105.74,48.67,102.43,48.67Zm7.21,6.26c0,2-3.19,3.54-7.13,3.54s-7.13-1.59-7.13-3.54,3.19-4.69,7.13-4.69S109.64,53,109.64,54.93Z"/></g></mask></defs><title>Oppfølging3</title><g id="Oppfølging"><g id="Group-2"><g class="cls-2"><g id="Group-6"><g id="Group"><g id="mennesker_NAV-ansatt_kvinne_-Frida" data-name="mennesker/NAV-ansatt/kvinne/-Frida"><g id="mennesker_kvinne_-sideprofil_-A" data-name="mennesker/kvinne/-sideprofil/-A"><g id="Group-2-2" data-name="Group"><g id="mennesker_kvinne_-hår_-halvlangt" data-name="mennesker/kvinne/⚙️/-hår/-halvlangt"><g id="hårfarge_-brunn" data-name="hårfarge/-brunn"><g id="Mask-7" data-name="Mask"><path id="path-3-2" data-name="path-3" class="cls-3" d="M226.7,40.52h0c0-17.53-12.57-31.75-28.08-31.75S170.5,23,170.5,40.52h0c0,15-7.68,23.53-7.68,23.53s7.58,9.36,35.75,9.36h.06c28.17,0,35.75-9.36,35.75-9.36s-7.68-8.56-7.68-23.54"/></g><g class="cls-4"><g id="mennesker_hårfarge_-brunn" data-name="mennesker/⚙️/hårfarge/-brunn"><g id="hårfarge_-brunn-2" data-name="hårfarge/-brunn"><rect class="cls-5" x="162.82" y="6.66" width="73.23" height="83.61"/></g></g></g></g></g><path id="Fill-160-Copy-2" class="cls-6" d="M216.91,47.71c-.12-.23-5.21-2.63-7.36-17.08-9.84,7.25-29.74,4.18-33.81,8.07,0,.28-3,15,6.86,23.22,1.6,1.34,4,2,3.86,2.48a25.91,25.91,0,0,0-3.29,2s4.66,25.48,15.37,25.48,15-26.52,15-26.52-3-1.26-2.74-2.35,4.63-6.62,4.63-6.62a22,22,0,0,0,5.14-2.68c1.84-1.48,1.47-4.67,0-5.64A4.79,4.79,0,0,0,216.91,47.71Z"/><g id="mennesker_kropp_forfra_-rund-hals" data-name="mennesker/⚙️/kropp/forfra/-rund-hals"><g id="Group-3" data-name="Group"><g id="_20_-Blå" data-name="+20/-Blå"><g id="Mask-8-2" data-name="Mask"><path id="path-5-2" data-name="path-5" class="cls-7" d="M211.71,64.6c6.52,3.12,16.66,11.58,16.66,19.42v25.9H169.63V84c0-7.57,9.28-15.7,15.73-19.07-.33.19-.5.31-.5.31C186,67.05,189,75,198.32,75s13.73-8.53,13.73-10.2Z"/></g><g class="cls-8"><g id="_farge_-Murstein-rød_-20" data-name="⚙️/farge/-Murstein-rød/-20"><g id="Fill-14"><polygon class="cls-9" points="133.73 140.22 271.1 140.22 271.1 34.78 133.73 34.78 133.73 140.22"/></g></g></g></g></g></g><g id="mennesker_kvinne_ansikt-profil_-blid" data-name="mennesker/kvinne/⚙️/ansikt-profil/-blid"><g id="Group-2-Copy"><path id="Stroke-223" class="cls-10" d="M197,53.35a3.08,3.08,0,0,1-.2.37,4.12,4.12,0,0,1-.75.9,5.6,5.6,0,0,1-4.78,1.24,3.16,3.16,0,0,1-2.32-1.38,3.71,3.71,0,0,1-.49-1,2.44,2.44,0,0,1-.11-.44.54.54,0,0,0-.6-.43.5.5,0,0,0-.47.56A4.3,4.3,0,0,0,188,55a4.25,4.25,0,0,0,3.09,1.83,6.73,6.73,0,0,0,5.69-1.52,4.74,4.74,0,0,0,1.2-1.64.5.5,0,0,0-.33-.64A.55.55,0,0,0,197,53.35Z"/><path id="Fill-224" class="cls-11" d="M187.52,45.07c1.16.36,2-1.63,2-3,0-.27-.11-1.51-.8-1.65a1.25,1.25,0,0,0-1.22.52c-.83,1.2-1.21,3.79.05,4.18"/><path id="Fill-225" class="cls-11" d="M197.29,45.28c1.43.21,2-1.86,1.71-3.26-.05-.27-.42-1.49-1.26-1.55a1.44,1.44,0,0,0-1.34.66c-.74,1.29-.67,3.9.89,4.15"/><path id="Stroke-65-Copy" class="cls-12" d="M189.11,45.57a2,2,0,0,1-.42.29,2.7,2.7,0,0,1-1.73.29l-.13,0c-.86-.12-1.44,0-1.65.21-.84,1-.57,2,.87,2.8a3.14,3.14,0,0,0,2.34.36.56.56,0,0,1,.71.25.48.48,0,0,1-.27.65,4.17,4.17,0,0,1-3.35-.42c-1.95-1.13-2.4-2.82-1.13-4.26a2.87,2.87,0,0,1,2.63-.57l.15,0a1.61,1.61,0,0,0,1-.16,1.38,1.38,0,0,0,.25-.17.55.55,0,0,1,.75,0A.46.46,0,0,1,189.11,45.57Z"/></g></g></g></g></g><g id="mennesker_mann_-sideprofil_-A" data-name="mennesker/mann/-sideprofil/-A"><g id="Group-4" data-name="Group"><path id="Fill-1-Copy" class="cls-6" d="M75,54.11a.7.7,0,0,0,.45-.88l-2.31-8.61a1.72,1.72,0,1,0-3.31.88l2,7.48A1.84,1.84,0,0,0,74,54.39Z"/><path id="Fill-5-Copy" class="cls-6" d="M78.72,65c-1.17.87,2.17,19.93,15.63,20,13,0,13.51-18.61,13.47-19.49a20.33,20.33,0,0,0-2.19-.88,6.31,6.31,0,0,0,4-1.76c4.12-4.58,7-16.75,7-23.87C116.71,24.06,108.24,12,95,12s-24,12-24,26.91c0,7.6,2.23,13.12,6.33,17.25a11.71,11.71,0,0,1,3.36,7.68C80.07,64.27,79.43,64.55,78.72,65Z"/></g><g id="mennesker_kropp_forfra_-vhals-slips" data-name="mennesker/⚙️/kropp/forfra/-vhals-slips"><g id="kropp_forfra_-vhals-copy" data-name="kropp/forfra/-vhals-copy"><g id="_20_-Blå-2" data-name="+20/-Blå"><g id="_--_" data-name="--↳"><g id="Mask-9" data-name="Mask"><path id="path-7-2" data-name="path-7" class="cls-1" d="M92.84,63.24h9.22c5,0,21.5,11.48,21.5,21.93v27.49H61.83V85.17c0-10.45,16.81-21.93,21.78-21.93Z"/></g><g class="cls-13"><g id="_farge_-Blå_20" data-name="⚙️/farge/-Blå/+20"><g id="Fill-66"><polygon class="cls-14" points="161.29 144.48 17.84 144.48 17.84 32.91 161.29 32.91 161.29 144.48"/></g></g></g></g><path id="Fill-418" class="cls-15" d="M107.85,65.26c-1.2,1.9-6.55,11.36-14.45,17.18-7.85-5.73-14.74-15.9-14.74-17.67C94.05,56,107.85,65.26,107.85,65.26Z"/></g><path id="Fill-12" class="cls-16" d="M90.44,73.36V67.73l.83,0h4l.82,0v5.63l-1.24.76L96,80.24a15.1,15.1,0,0,1-2.61,2.23,25.5,25.5,0,0,1-2.66-2.12l.93-6.23Z"/><path id="Fill-10" class="cls-1" d="M79.07,62.12a20.71,20.71,0,0,0,28.41.1c0,.32.3,1.81.3,2.14,0,4-6.5,9-10.67,12.36l-2.43-8.29H91.75l-2.33,8.29C85.51,73.51,78.8,68.44,78.8,64.36,78.8,64,79,62.47,79.07,62.12Z"/></g></g><g id="mennesker_mann_-hår_-sideprofil_-halvlangt" data-name="mennesker/mann/⚙️/-hår/-sideprofil/-halvlangt"><g id="g_hårfarge_-brunn" data-name="g/hårfarge/-brunn"><g id="Mask-10-2" data-name="Mask"><path id="path-9-2" data-name="path-9" class="cls-17" d="M116.62,41.58q-.06-8.19-4.51-12.39s1.07,4.8.32,3.8c-4.23-5.64-15.05-.65-19.11-7.93-.52,4,4.61,5.22,4.61,5.22-4.09.78-7.63-.88-8.59-2.86-.32,1.61-.44,2.68,1,3.78-5-1-4-4.46-4-4.46-.72,4.64-8.15,3-8.15,10.6L77.91,44c0,.25-2.48,1.22-5,.72q.12-.85-2.58-1.56-.37.32-.49-5.38C69.53,20.29,79.3,8.58,92.75,8.58c12.84,0,23.82,9,23.81,24.41C116.84,34.47,116.62,41.7,116.62,41.58Z"/></g><g class="cls-18"><g id="mennesker_hårfarge_-brunn-2" data-name="mennesker/⚙️/hårfarge/-brunn"><g id="hårfarge_-brunn-3" data-name="hårfarge/-brunn"><rect class="cls-5" x="53.49" y="-24.31" width="79.25" height="89.59"/></g></g></g></g></g><g id="mennesker_mann_ansikt-profil_-blid" data-name="mennesker/mann/⚙️/ansikt-profil/-blid"><g id="Group-2-Copy-2" data-name="Group-2-Copy"><path id="Stroke-223-2" data-name="Stroke-223" class="cls-19" d="M98.64,52.23a4.63,4.63,0,0,0,.21.44,5.13,5.13,0,0,0,.8,1,5.53,5.53,0,0,0,5.07,1.45,3.3,3.3,0,0,0,2.47-1.61,4.13,4.13,0,0,0,.52-1.18,3.61,3.61,0,0,0,.12-.51.58.58,0,0,1,.64-.51.59.59,0,0,1,.5.66,5.48,5.48,0,0,1-.81,2.17,4.46,4.46,0,0,1-3.28,2.15,6.74,6.74,0,0,1-6-1.78,5.57,5.57,0,0,1-1.27-1.93.58.58,0,0,1,.34-.75A.58.58,0,0,1,98.64,52.23Z"/><path id="Fill-224-2" data-name="Fill-224" class="cls-11" d="M108.66,41.37c-1.23.41-2.12-1.92-2.09-3.58,0-.31.11-1.77.85-1.94a1.33,1.33,0,0,1,1.3.61c.88,1.41,1.28,4.45-.06,4.91"/><path id="Fill-225-2" data-name="Fill-225" class="cls-11" d="M98.27,41.61c-1.51.25-2.14-2.18-1.81-3.82.06-.32.45-1.75,1.34-1.82a1.5,1.5,0,0,1,1.42.77c.78,1.51.71,4.58-1,4.87"/><path id="Stroke-65-Copy-2" data-name="Stroke-65-Copy" class="cls-12" d="M107,42a3.22,3.22,0,0,0,.45.33,2.64,2.64,0,0,0,1.84.34l.14,0c.91-.13,1.53,0,1.76.26.89,1.11.6,2.3-.93,3.27a3.05,3.05,0,0,1-2.49.43.56.56,0,0,0-.75.29.58.58,0,0,0,.29.77,4.08,4.08,0,0,0,3.55-.5c2.08-1.33,2.56-3.3,1.21-5-.56-.69-1.53-.85-2.8-.67l-.16,0a1.51,1.51,0,0,1-1.08-.2,1.56,1.56,0,0,1-.27-.2.56.56,0,0,0-.8,0A.59.59,0,0,0,107,42Z"/></g></g><g id="mennesker_mann_-skjegg_-profil_-kort" data-name="mennesker/mann/⚙️/-skjegg/-profil/-kort"><g id="hårfarge_-brunn-4" data-name="hårfarge/-brunn"><g id="Mask-11" data-name="Mask"><path id="path-11-2" data-name="path-11" class="cls-20" d="M102.43,48.67c-3.3,0-4.72,1.06-8.88,2-14.89,3.53-18.06-9.45-19-10.07-1.56-1.45-2.26.9-2,1.84C77.33,63.35,93.91,65.9,102.58,65.9c8.92,0,15.41-12.62,13.92-27.67-.58,3.12-1.6,13.69-7.59,11.62C104.21,48.22,105.74,48.67,102.43,48.67Zm7.21,6.26c0,2-3.19,3.54-7.13,3.54s-7.13-1.59-7.13-3.54,3.19-4.69,7.13-4.69S109.64,53,109.64,54.93Z"/></g><g class="cls-21"><g id="mennesker_hårfarge_-brunn-3" data-name="mennesker/⚙️/hårfarge/-brunn"><g id="hårfarge_-brunn-5" data-name="hårfarge/-brunn"><rect class="cls-5" x="50.94" y="1.46" width="78.25" height="90.58"/></g></g></g></g></g></g><g id="gjenstander_-kopp" data-name="gjenstander/-kopp"><g id="g_farger_-kopp_-NAV-rød" data-name="g/farger/-kopp/-NAV-rød"><g id="Mask-12-2" data-name="Mask"><path id="path-13" class="cls-22" d="M134.75,93.85a2.38,2.38,0,0,1-1.83-.8,1.6,1.6,0,0,1-.37-1,1.62,1.62,0,0,1,.6-1.22,2.44,2.44,0,0,1,1.6-.57,1.83,1.83,0,1,1,0,3.59m-.19-6.71a6.85,6.85,0,0,0-1,.07l.31-3h-22l2.14,20.76H131.7l.86-8.37a7.27,7.27,0,0,0,2,.28c3.29,0,6-2.17,6-4.86s-2.67-4.85-6-4.85"/></g></g></g></g><path id="Fill-62" class="cls-23" d="M76.32,100H27.62a3.42,3.42,0,0,1-3.32-3.5V68a3.42,3.42,0,0,1,3.32-3.51h48.7A3.42,3.42,0,0,1,79.65,68V96.49a3.42,3.42,0,0,1-3.33,3.5"/><path id="Fill-84" class="cls-23" d="M78.43,105.05H27a2,2,0,0,1-2-2.08v0a2,2,0,0,1,2-2.07H78.43a2,2,0,0,1,2,2.07v0a2,2,0,0,1-2,2.08"/><path id="Stroke-12-Copy" class="cls-24" d="M16,107.69H148.93"/></g></g></g></g></svg>