<svg id="Layer_1" data-name="Layer 1" xmlns="http://www.w3.org/2000/svg" xmlns:xlink="http://www.w3.org/1999/xlink" viewBox="0 0 260 110"><defs><style>.cls-1{fill:#fff;}.cls-2{fill:#e7e5e2;}.cls-3{fill:#d8a25d;}.cls-4{mask:url(#mask);}.cls-5{fill:#0c5472;}.cls-6{fill:#f79221;}.cls-7{fill:#635e59;}.cls-8,.cls-9{fill:none;stroke-linecap:round;}.cls-8{stroke:#d1bfa3;}.cls-9{stroke:#593a32;stroke-width:1.01px;}.cls-10{mask:url(#mask-2);}.cls-11{fill:#3e3832;}.cls-12{mask:url(#mask-3);}.cls-13{mask:url(#mask-4);}.cls-14{fill:#c9c9c9;}.cls-15{fill:#8f9395;}.cls-16{mask:url(#mask-5);}.cls-17{fill:#a13a28;}.cls-18{fill:#d6897d;}</style><mask id="mask" x="32.05" y="32.49" width="140" height="111" maskUnits="userSpaceOnUse"><g id="opplæring-b"><path id="opplæring-a" class="cls-1" d="M98.58,62.43h-9c-4.84,0-20.9,11.33-20.9,21.64v27.14h60V84.07c0-10.31-16.34-21.64-21.18-21.64Z"/></g></mask><mask id="mask-2" x="60.35" y="-23.49" width="74" height="87" maskUnits="userSpaceOnUse"><g id="opplæring-d"><path id="opplæring-c" class="cls-1" d="M120.49,34.17a56,56,0,0,1-7.21-12.27c-13.48-4.09-30.36.13-30.47.53-1.53,5.46-7.19,12.21-7.19,12.21C75.71,21.24,82.79,8.29,98,8.31,113.68,8.26,120.07,20.12,120.49,34.17Z"/></g></mask><mask id="mask-3" x="51.13" y="-2.28" width="76" height="86" maskUnits="userSpaceOnUse"><g id="opplæring-f"><path id="opplæring-e" class="cls-1" d="M92.66,46.8l6.08.43,6.15-.43a4,4,0,0,1,4.28,3.7,2.72,2.72,0,0,1,0,.28v1.16h-2.52l-.34-1.36-.23,1.36h-.92L105,51.3l-.18.64-5.94.25-8.39-.25-.18-.64-.33.64H88.37V50.79a4,4,0,0,1,4-4Z"/></g></mask><mask id="mask-4" x="144" y="29" width="54" height="73" maskUnits="userSpaceOnUse"><g id="opplæring-h"><path id="opplæring-g" class="cls-1" d="M144,40.66v54.8A3.52,3.52,0,0,0,147.51,99h47A3.52,3.52,0,0,0,198,95.46V32.54A3.52,3.52,0,0,0,194.49,29H156.21Z"/></g></mask><mask id="mask-5" x="173" y="34.06" width="17.99" height="17.89" maskUnits="userSpaceOnUse"><g id="opplæring-j"><polygon id="opplæring-i" class="cls-1" points="173 34.06 190.99 34.06 190.99 51.94 173 51.94 173 34.06"/></g></mask></defs><title>Opplæring</title><path class="cls-2" d="M84.16,64.26C85.29,66.07,88.45,97.75,98,97.75s13.78-32.27,13.78-33.95C97.19,55.46,84.16,64.26,84.16,64.26Z"/><path id="opplæring-a-2" data-name="opplæring-a" class="cls-3" d="M98.58,62.43h-9c-4.84,0-20.9,11.33-20.9,21.64v27.14h60V84.07c0-10.31-16.34-21.64-21.18-21.64Z"/><g class="cls-4"><polygon class="cls-5" points="32.05 143.49 172.05 143.49 172.05 32.49 32.05 32.49 32.05 143.49"/></g><path class="cls-6" d="M102.05,111.21h26.67V92.87c-12.49-1.53-12.66-24.7-12.65-26.64-3.37-2.34-6.54-3.8-8.25-3.8h-3.67Zm-6.66,0-2.1-48.78h-4c-1.68,0-4.72,1.4-8,3.66,0,0,.38,25.19-12.65,26.79v18.33Z"/><path class="cls-2" d="M120.77,47.26C118,58.56,109.07,66.83,98.5,66.83S79,58.56,76.23,47.26a2.56,2.56,0,0,1-.89.16,2.07,2.07,0,0,1-2.21-1.91V37.82a2.07,2.07,0,0,1,2.21-1.9h.23c1.6-13.12,11.26-23.2,22.93-23.2s21.33,10.08,22.93,23.2h.23a2.07,2.07,0,0,1,2.21,1.9v7.69a2.07,2.07,0,0,1-2.21,1.91A2.56,2.56,0,0,1,120.77,47.26Z"/><path class="cls-7" d="M89.65,38.81c-1.59.12-2-2.23-1.56-3.77.09-.29.62-1.62,1.55-1.62a1.54,1.54,0,0,1,1.39.85c.69,1.5.35,4.41-1.38,4.54m17.72,0c1.59.12,2-2.23,1.55-3.77-.09-.29-.61-1.62-1.54-1.62a1.58,1.58,0,0,0-1.4.85c-.68,1.5-.35,4.41,1.39,4.54"/><path class="cls-8" d="M98.93,41a2.5,2.5,0,0,1,2.31.43c1.06,1.3.75,2.81-1,3.93a3.47,3.47,0,0,1-2.93.44"/><path class="cls-9" d="M105.77,49.78a8,8,0,0,1-7.59,4.45,8.86,8.86,0,0,1-7.67-4.45"/><g class="cls-10"><rect class="cls-11" x="60.35" y="-23.49" width="74" height="87"/></g><path id="opplæring-e-2" data-name="opplæring-e" class="cls-11" d="M92.66,46.8l6.08.43,6.15-.43a4,4,0,0,1,4.28,3.7,2.72,2.72,0,0,1,0,.28v1.16h-2.52l-.34-1.36-.23,1.36h-.92L105,51.3l-.18.64-5.94.25-8.39-.25-.18-.64-.33.64H88.37V50.79a4,4,0,0,1,4-4Z"/><g class="cls-12"><rect class="cls-11" x="51.13" y="-2.28" width="76" height="86"/></g><polygon class="cls-5" points="128.06 81.95 188.7 63.58 186.5 55 116.14 66.51 128.06 81.95"/><g class="cls-13"><rect class="cls-1" x="145" y="29" width="52" height="73"/></g><path class="cls-14" d="M156.32,29v8.12a3.53,3.53,0,0,1-3.54,3.54H144Z"/><polygon class="cls-15" points="154 55.94 170.73 55.94 170.73 53 154 53 154 55.94"/><polygon class="cls-15" points="154 61.94 170.73 61.94 170.73 59 154 59 154 61.94"/><polygon class="cls-15" points="154 68.94 187.67 68.94 187.67 66 154 66 154 68.94"/><polygon class="cls-15" points="154 74.94 187.67 74.94 187.67 72 154 72 154 74.94"/><polygon class="cls-15" points="154 81.94 187.67 81.94 187.67 79 154 79 154 81.94"/><polygon class="cls-15" points="154 48.94 170.73 48.94 170.73 46 154 46 154 48.94"/><path class="cls-5" d="M187,44V61.89a.12.12,0,0,1-.22,0l-4.68-4.88a.12.12,0,0,0-.2,0l-4.68,4.88a.12.12,0,0,1-.22,0V44Z"/><g class="cls-16"><path class="cls-17" d="M189.64,45a2.19,2.19,0,0,1,.14,2.43,2.24,2.24,0,0,1-2.19,1.1,2.21,2.21,0,0,1-1.1,2.18A2.25,2.25,0,0,1,184,50.6a2.23,2.23,0,0,1-4.09,0,2.25,2.25,0,0,1-2.45.15,2.21,2.21,0,0,1-1.1-2.18,2.25,2.25,0,0,1-2.2-1.1,2.21,2.21,0,0,1,.15-2.43,2.22,2.22,0,0,1,0-4.08,2.21,2.21,0,0,1-.15-2.43,2.25,2.25,0,0,1,2.2-1.1,2.21,2.21,0,0,1,1.1-2.18,2.25,2.25,0,0,1,2.45.15,2.23,2.23,0,0,1,4.09,0,2.25,2.25,0,0,1,2.45-.15,2.21,2.21,0,0,1,1.1,2.18,2.24,2.24,0,0,1,2.19,1.1,2.19,2.19,0,0,1-.14,2.43,2.22,2.22,0,0,1,0,4.08"/></g><ellipse class="cls-2" cx="197" cy="51.5" rx="2" ry="1.5"/><ellipse class="cls-2" cx="196.5" cy="55" rx="2.5" ry="2"/><ellipse class="cls-2" cx="196.5" cy="59" rx="2.5" ry="2"/><ellipse class="cls-2" cx="197" cy="62.5" rx="2" ry="1.5"/><circle class="cls-18" cx="182" cy="43" r="5"/></svg>