<svg id="Layer_1" data-name="Layer 1" xmlns="http://www.w3.org/2000/svg" xmlns:xlink="http://www.w3.org/1999/xlink" viewBox="0 0 260 110"><defs><style>.cls-1{fill:#fff;}.cls-2{fill:#e57f68;}.cls-3{mask:url(#mask);}.cls-4{fill:#3e3832;}.cls-5{fill:#e7e5e2;}.cls-6{fill:#d8a25d;}.cls-7{mask:url(#mask-2-2);}.cls-8{fill:#6ab889;}.cls-9{fill:#635e59;}.cls-10{fill:#d1bfa3;}.cls-11{fill:#d19e9c;}.cls-12{fill:#585b5c;}.cls-13{fill:#e2d1b6;}.cls-14{fill:#e3b0a8;}.cls-15{fill:#d6897d;}.cls-16{fill:#545757;}.cls-17{fill:#c52c35;}.cls-18{fill:#6998a5;}.cls-19{fill:#0c576f;}.cls-20{fill:#9bd0b0;}.cls-21{fill:#efefef;}.cls-22{fill:#fdbd68;}.cls-23{fill:none;stroke:#635e59;stroke-linecap:round;stroke-linejoin:round;stroke-width:3px;}</style><mask id="mask" x="113.44" y="4.75" width="71" height="84" maskUnits="userSpaceOnUse"><g id="mask-2"><path id="path-1" class="cls-1" d="M175.92,38.74h0c0-17.6-12.3-31.86-27.46-31.86S121,21.14,121,38.74v0c0,15-7.51,23.62-7.51,23.62s7.41,9.39,35,9.39h.05c27.56,0,35-9.39,35-9.39s-7.51-8.6-7.51-23.64"/></g></mask><mask id="mask-2-2" x="84.66" y="32.96" width="135" height="109" maskUnits="userSpaceOnUse"><g id="mask-4"><path id="path-3" class="cls-1" d="M161.65,63.58c6.44,3.21,16.46,11.89,16.46,19.94v26.61h-58V83.52c0-7.76,9.16-16.12,15.52-19.58l-.49.32c1.1,1.84,4.05,10,13.3,10S162,65.5,162,63.79Z"/></g></mask></defs><title>Tilrettelegging</title><g id="Tilrettelegging"><g id="mennesker_NAV-ansatt_kvinne_-Frida" data-name="mennesker/NAV-ansatt/kvinne/-Frida"><g id="mennesker_kvinne_-sideprofil_-A" data-name="mennesker/kvinne/-sideprofil/-A"><g id="Group"><g id="mennesker_kvinne_-hår_-halvlangt" data-name="mennesker/kvinne/⚙️/-hår/-halvlangt"><g id="hårfarge_-brunn" data-name="hårfarge/-brunn"><g id="Mask-3" data-name="Mask"><path id="path-1-2" data-name="path-1" class="cls-2" d="M175.92,38.74h0c0-17.6-12.3-31.86-27.46-31.86S121,21.14,121,38.74v0c0,15-7.51,23.62-7.51,23.62s7.41,9.39,35,9.39h.05c27.56,0,35-9.39,35-9.39s-7.51-8.6-7.51-23.64"/></g><g class="cls-3"><g id="mennesker_hårfarge_-sort" data-name="mennesker/⚙️/hårfarge/-sort"><g id="hårfarge_-sort" data-name="hårfarge/-sort"><rect class="cls-4" x="113.44" y="4.75" width="71" height="84"/></g></g></g></g></g><path id="Fill-160-Copy-2" class="cls-5" d="M166.42,46.4c-.12-.23-5.1-2.67-7.21-17.34-9.63,7.36-29.13,4.24-33.11,8.2,0,.28-3,15.19,6.71,23.56,1.57,1.36,3.94,2,3.78,2.52a25.45,25.45,0,0,0-3.22,2s4.57,25.86,15.06,25.86,14.66-26.92,14.66-26.92-2.92-1.27-2.69-2.39,4.54-6.72,4.54-6.72a21.29,21.29,0,0,0,5-2.71c1.79-1.51,1.44-4.74,0-5.73A4.56,4.56,0,0,0,166.42,46.4Z"/><g id="mennesker_kropp_forfra_-rund-hals" data-name="mennesker/⚙️/kropp/forfra/-rund-hals"><g id="Group-2" data-name="Group"><g id="_20_-Blå" data-name="+20/-Blå"><g id="Mask-4-2" data-name="Mask"><path id="path-3-2" data-name="path-3" class="cls-6" d="M161.65,63.58c6.44,3.21,16.46,11.89,16.46,19.94v26.61h-58V83.52c0-7.76,9.16-16.12,15.52-19.58l-.49.32c1.1,1.84,4.05,10,13.3,10S162,65.5,162,63.79Z"/></g><g class="cls-7"><g id="_2-Styles_-Farge_Grønn_--40" data-name="2-Styles/-Farge/Grønn/--40"><g id="Fill-43"><polygon class="cls-8" points="84.66 141.96 219.66 141.96 219.66 32.95 84.66 32.95 84.66 141.96"/></g></g></g></g></g></g><g id="mennesker_kvinne_ansikt-forfra_-glad" data-name="mennesker/kvinne/⚙️/ansikt-forfra/-glad"><g id="Group-3" data-name="Group"><path id="Fill-42" class="cls-9" d="M137.52,44.25c-1,.1-1.25-1.82-1-3.07.06-.24.38-1.32,1-1.32a1,1,0,0,1,.86.69c.42,1.22.21,3.6-.86,3.7"/><path id="Fill-44" class="cls-9" d="M148.44,44.25c1,.1,1.26-1.82,1-3.07-.05-.24-.38-1.32-1-1.32a1,1,0,0,0-.86.69c-.42,1.22-.22,3.6.85,3.7"/><path id="Stroke-46" class="cls-10" d="M143.29,46.46c.58-.12,1,0,1.11.19a1.84,1.84,0,0,1-.55,2.54,1.46,1.46,0,0,1-1.49.33c-.17-.1-.37,0-.44.23a.51.51,0,0,0,.17.59,2,2,0,0,0,2.12-.39,2.89,2.89,0,0,0,.72-3.87c-.34-.56-1-.67-1.74-.51a.45.45,0,0,0-.28.51C142.94,46.33,143.11,46.5,143.29,46.46Z"/><path id="Stroke-48" class="cls-11" d="M147.15,53a4.68,4.68,0,0,1-.21.51,6.52,6.52,0,0,1-.72,1.16,4,4,0,0,1-3.43,1.69,4.65,4.65,0,0,1-3.4-1.7,6.75,6.75,0,0,1-.8-1.17q-.18-.36-.24-.51a.3.3,0,0,0-.45-.2.51.51,0,0,0-.15.6A4.8,4.8,0,0,0,138,54a7.48,7.48,0,0,0,.91,1.33,5.22,5.22,0,0,0,3.82,1.92,4.56,4.56,0,0,0,3.91-1.94,6.68,6.68,0,0,0,.83-1.33,6.19,6.19,0,0,0,.26-.63.52.52,0,0,0-.18-.59C147.42,52.69,147.22,52.79,147.15,53Z"/></g></g></g></g></g><path id="Fill-62" class="cls-12" d="M138.4,105.39H85.61A3.55,3.55,0,0,1,82,101.9V73.49A3.55,3.55,0,0,1,85.61,70H138.4A3.55,3.55,0,0,1,142,73.49V101.9a3.55,3.55,0,0,1-3.61,3.49"/><g id="Group-Copy"><polygon id="Fill-148" class="cls-13" points="204.96 81.64 202.45 77.48 201.25 82.21 203.25 82.43 204.96 81.64"/><polygon id="Fill-149" class="cls-14" points="207.08 104.56 208.31 104.37 205.01 82.02 203.78 82.21 207.08 104.56"/><polygon id="Fill-150" class="cls-15" points="202.54 82.4 205.84 104.75 207.08 104.56 203.78 82.21 202.54 82.4"/><polygon id="Fill-151" class="cls-14" points="205.84 104.75 202.54 82.4 201.3 82.58 204.61 104.94 205.84 104.75"/><path id="Fill-152" class="cls-14" d="M204.51,81.43c-.23,0-.34.37-.65.41h-.14l.06.37L205,82l0-.35s-.21-.27-.45-.24"/><path id="Fill-153" class="cls-15" d="M203.72,81.84c-.21,0-.34-.28-.66-.23s-.38.3-.57.41l0,.38,1.24-.19Z"/><path id="Fill-154" class="cls-14" d="M202.49,82a.29.29,0,0,1-.13,0c-.31.05-.51-.23-.75-.19s-.35.36-.35.36l0,.34,1.24-.18Z"/><polygon id="Fill-155" class="cls-16" points="202.45 77.48 202.03 79.15 203.34 78.95 202.45 77.48"/><path id="Fill-156" class="cls-17" d="M212.1,95l3.7.87a.6.6,0,0,1,.43.71l-.5,2.18a.57.57,0,0,1-.69.44l-3.7-.87a.58.58,0,0,1-.43-.7l.5-2.19a.58.58,0,0,1,.69-.44"/><polygon id="Fill-157" class="cls-13" points="219.44 73.79 218.23 69.07 215.74 73.23 217.59 74.04 219.44 73.79"/><polygon id="Fill-158" class="cls-18" points="214.88 96.34 216.12 96.53 219.38 74.17 218.15 73.98 214.88 96.34"/><polygon id="Fill-159" class="cls-19" points="216.91 73.79 213.65 96.15 214.88 96.34 218.15 73.98 216.91 73.79"/><polygon id="Fill-160" class="cls-18" points="213.65 96.15 216.91 73.79 215.68 73.61 212.41 95.97 213.65 96.15"/><path id="Fill-161" class="cls-18" d="M219.08,73.46c-.24,0-.44.24-.75.19a.28.28,0,0,1-.13,0l0,.37,1.23.19.06-.35s-.13-.32-.36-.36"/><path id="Fill-162" class="cls-19" d="M218.2,73.61c-.19-.11-.24-.37-.57-.42s-.45.18-.66.23l-.06.38,1.24.18Z"/><path id="Fill-163" class="cls-18" d="M217,73.42h-.14c-.31-.05-.42-.37-.65-.41s-.45.24-.45.24l0,.35,1.23.18Z"/><polygon id="Fill-164" class="cls-16" points="218.23 69.07 217.35 70.54 218.66 70.74 218.23 69.07"/><polygon id="Fill-165" class="cls-16" points="211.37 95.61 216.19 96.74 216.04 97.41 211.22 96.28 211.37 95.61"/><polygon id="Fill-166" class="cls-13" points="213.31 85.92 211.63 81.35 209.56 85.75 211.49 86.37 213.31 85.92"/><polygon id="Fill-167" class="cls-20" points="211.57 97.72 212.82 97.78 213.29 86.3 212.04 86.25 211.57 97.72"/><polygon id="Fill-168" class="cls-8" points="210.79 86.19 210.32 97.67 211.57 97.72 212.04 86.25 210.79 86.19"/><polygon id="Fill-169" class="cls-20" points="210.32 97.67 210.79 86.19 209.54 86.14 209.08 97.61 210.32 97.67"/><path id="Fill-170" class="cls-20" d="M212.91,85.63c-.24,0-.41.29-.72.27a.28.28,0,0,1-.13,0l0,.38,1.25,0,0-.35s-.17-.31-.4-.32"/><path id="Fill-171" class="cls-8" d="M212.06,85.87c-.21-.09-.28-.34-.61-.35s-.43.23-.64.3l0,.37,1.25.06Z"/><path id="Fill-172" class="cls-20" d="M210.81,85.82l-.14,0c-.31,0-.46-.33-.69-.34s-.42.29-.42.29l0,.35,1.25.06Z"/><polygon id="Fill-173" class="cls-16" points="211.63 81.35 210.9 82.91 212.22 82.97 211.63 81.35"/><polygon id="Fill-174" class="cls-21" points="217.32 92.31 200.28 92.31 202.32 110.14 215.27 110.14 217.32 92.31"/></g><g id="gjenstander_-bordlampe" data-name="gjenstander/-bordlampe"><path id="Fill-83" class="cls-22" d="M67.45,60.66a3.37,3.37,0,1,0,.82,4.69,3.38,3.38,0,0,0-.82-4.69"/><path id="Stroke-84" class="cls-23" d="M33,108.92H59"/><polyline id="Stroke-85" class="cls-23" points="45.9 108.92 33.01 78.3 51.43 53.83"/><path id="Fill-86" class="cls-21" d="M59.67,52.87,55.57,50a5.29,5.29,0,1,0-6.08,8.65l4.1,2.87a12,12,0,0,0,5,11.76L72.44,53.54a12.09,12.09,0,0,0-12.77-.67"/><path id="Fill-87" class="cls-9" d="M37,78.3a3.2,3.2,0,1,0-3.2,3.19A3.2,3.2,0,0,0,37,78.3"/></g><path id="Fill-84" class="cls-12" d="M139.87,110.16H84.14A2.1,2.1,0,0,1,82,108.1v0A2.11,2.11,0,0,1,84.14,106h55.73a2.11,2.11,0,0,1,2.14,2.07v0a2.1,2.1,0,0,1-2.14,2.06"/></g></svg>