<svg role="img" aria-labelledby="cv-spm-02_title" id="Layer_1" data-name="Layer 1" xmlns="http://www.w3.org/2000/svg" viewBox="0 0 64 88">
	<title id="cv-spm-02_title">Hånd med forstørrelsesglass</title>
	<defs>
		<style>
			.cls-1{fill:#e0f5fb;stroke:#2e3137;stroke-miterlimit:10;}.cls-2{fill:#c42b34;}.cls-3{fill:#2e3137;}.cls-4{fill:#d84b55;}.cls-5{fill:#e6e5e2;}.cls-6{fill:#561d5b;}.cls-7{fill:#7c7085;}.cls-8{fill:#2f3137;}
		</style>
	</defs>
	<circle class="cls-1" cx="20.23" cy="19.49" r="14.62"/>
	<path class="cls-2" d="M46.13,55a3.3,3.3,0,0,1-4.59-.79L30.32,38.37a3.29,3.29,0,1,1,5.37-3.8L46.92,50.45A3.31,3.31,0,0,1,46.13,55Z"/>
	<path class="cls-3"
		  d="M29.76,31.88A15.74,15.74,0,1,1,33.52,9.94,15.76,15.76,0,0,1,29.76,31.88ZM12.85,8A13.55,13.55,0,1,0,31.73,11.2,13.56,13.56,0,0,0,12.85,8Z"/>
	<path class="cls-3" d="M33,36.51c-1,.7-2.06.89-2.76-.1L27.93,33.1a2.2,2.2,0,0,1,3.59-2.53l2.34,3.31C34.56,34.87,34,35.81,33,36.51Z"/>
	<path class="cls-4" d="M31.63,38.83l10.59,15A1.09,1.09,0,0,0,44,52.55L33.87,38.21A3.14,3.14,0,0,1,31.63,38.83Z"/>
	<path class="cls-5" d="M55.55,44.47h0a1.92,1.92,0,0,1,2,1.78V65.14a2.05,2.05,0,0,1-4.07,0V46.25a1.92,1.92,0,0,1,2-1.78"/>
	<path class="cls-5" d="M51.08,41.41h0a2,2,0,0,1,2,2V68A2,2,0,0,1,49,68V43.44a2,2,0,0,1,2-2"/>
	<path class="cls-5" d="M46.61,38h0a2,2,0,0,1,2,2V69.35a2,2,0,1,1-4.07,0V40a2,2,0,0,1,2-2"/>
	<path class="cls-5" d="M42.13,34.91h0a2,2,0,0,1,2,2V56.54a2,2,0,0,1-4.08,0V37a2,2,0,0,1,2-2"/>
	<path class="cls-5"
		  d="M55.28,70.49V68c0-.69,1.21-1.27,1.21-1.27L54,46.37H42.13l-2,6.67s-.49.15-1-.61-2-4.38-2-4.38-2-4.25-3.83-3.49-1,3.57-1,3.57.94,4.41,1.46,6.52A26.37,26.37,0,0,0,37.18,62c1.26,2,3.68,4.9,4.52,4.9l.2,3.57Z"/>
	<rect class="cls-6" x="39.58" y="70.49" width="18.13" height="14.8"/>
	<rect class="cls-7" x="39.58" y="70.49" width="18.13" height="5.47"/>
	<path class="cls-8" d="M55.82,73.27a1.15,1.15,0,1,0-1.16,1.15,1.15,1.15,0,0,0,1.16-1.15"/>
</svg>
