<svg xmlns="http://www.w3.org/2000/svg" xmlns:xlink="http://www.w3.org/1999/xlink" width="64" height="64" viewBox="0 0 64 64">
    <defs>
        <circle id="a" cx="32" cy="32" r="32"/>
        <path id="c" d="M49.984 24.743h-.044C49.94 11.078 40.107 0 27.974 0 15.842 0 6.008 11.078 6.008 24.743v.013C6.004 36.426 0 43.099 0 43.099s5.93 7.29 27.974 7.29h.043c22.047 0 27.976-7.29 27.976-7.29s-6.009-6.677-6.009-18.356"/>
        <path id="e" d="M32.234.148C37.23 2.584 45 9.183 45 15.301v20.22H0v-20.22C0 9.398 7.11 3.047 12.049.421c-.25.15-.382.242-.382.242.85 1.397 3.138 7.598 10.313 7.598 7.177 0 10.52-6.657 10.52-7.958a22.272 22.272 0 0 0-.266-.155z"/>
    </defs>
    <g fill="none" fill-rule="evenodd">
        <mask id="b" fill="#fff">
            <use xlink:href="#a"/>
        </mask>
        <g mask="url(#b)">
            <path fill="#CCE1F3" d="M-5.12 64h81V0h-81z"/>
        </g>
        <g mask="url(#b)">
            <g transform="translate(3.765 7.313)">
                <mask id="d" fill="#fff">
                    <use xlink:href="#c"/>
                </mask>
                <use fill="#E57F68" xlink:href="#c"/>
                <g fill="#D2654C" mask="url(#d)">
                    <path d="M0-1.65h57v65H0z"/>
                </g>
            </g>
            <path fill="#E7E5E2" d="M21.136 51.865c.845 1.356 3.218 25.174 10.34 25.174 7.124 0 10.34-24.261 10.34-25.524-10.907-6.27-20.68.35-20.68.35z"/>
            <g transform="translate(9.555 51.295)">
                <mask id="f" fill="#fff">
                    <use xlink:href="#e"/>
                </mask>
                <use fill="#D8A25D" xlink:href="#e"/>
                <g mask="url(#f)">
                    <path fill="#0C5EA8" d="M-27.5 59.87h105v-83h-105z"/>
                </g>
            </g>
            <path fill="#D2242A" d="M50.178 75.338H37.265a1.05 1.05 0 0 1-1.043-1.059v-7.048c0-.585.466-1.06 1.043-1.06h12.913c.576 0 1.044.475 1.044 1.06v7.048c0 .585-.468 1.06-1.044 1.06"/>
            <path fill="#FFF" d="M46.942 71.178a3.143 3.143 0 0 1-3.15 3.136 3.145 3.145 0 0 1-3.154-3.136 3.145 3.145 0 0 1 3.154-3.136c1.74 0 3.15 1.405 3.15 3.136M39.709 72.56h-.615l.657-1.602h.616zM47.456 72.56h-.381l.657-1.602h.38zM48.507 72.56h-.16l.655-1.602h.16z"/>
            <path fill="#C52D35" d="M41.398 72.553h.483c.026 0 .045-.02.045-.043v-1.5a.043.043 0 0 0-.045-.043h-.489a.055.055 0 0 0-.056.057l-.192.471a.038.038 0 0 0 .033.054h.138c.021 0 .039.016.039.038v.923c0 .024.02.043.044.043"/>
            <path fill="#C52D35" d="M42.449 72.553h.485c.025 0 .047-.02.047-.043v-1.5c0-.024-.022-.043-.047-.043h-.755a.056.056 0 0 0-.057.057l-.193.471-.066.054h.386c.086 0 .156.068.156.155v.806c0 .024.02.043.044.043M44.619 70.967h-.486a.044.044 0 0 0-.044.044v1.499c0 .024.02.043.044.043h.49a.055.055 0 0 0 .057-.057l.192-.471c.012-.026-.006-.054-.036-.054h-.134a.037.037 0 0 1-.037-.038v-.922c0-.025-.023-.044-.046-.044"/>
            <path fill="#C52D35" d="M42.623 72.553h.319a.057.057 0 0 0 .056-.056l.192-.473a.038.038 0 0 0-.035-.054h-.135l-.397.583zM45.917 70.967h.577c.028 0 .048.027.036.052l-.61 1.51c-.005.015-.02.024-.036.024h-.522l.517-1.56a.04.04 0 0 1 .038-.026"/>
            <path fill="#C52D35" d="M45.194 70.967h-.816c-.058 0 .234.056.255.108l.577 1.428c.012.032.041.05.074.05h.495l-.51-1.532a.079.079 0 0 0-.075-.054M44.128 71.476c0 .32-.04.338-.04.338s-.046-.306-.284-.306c-.233 0-.286.135-.286.236 0 .117.12.227.186.227h.424l-.25.553a.051.051 0 0 1-.047.03h-.193c-.202 0-.73-.264-.73-.774 0-.511.393-.813.72-.813.27 0 .5.185.5.509z"/>
            <path fill="#5A1F57" d="M44.498 67.627H43.16c-.1 0-.18-.08-.18-.179v-.224c0-.098.08-.178.18-.178h1.338c.099 0 .179.08.179.178v.224c0 .099-.08.179-.18.179"/>
            <path fill="#C2B5CF" d="M43.441 67.421h.775v-2.083h-.775z"/>
            <path fill="#E7E5E2" d="M14.965 30.157s-.087.494-.2.413a1.339 1.339 0 0 0-.5-.103c-.768 0-1.392.646-1.393 1.445l-.008 5.525c-.002.798.62 1.446 1.388 1.448.307 0 .589-.106.82-.283 1.857 8.898 8.479 15.181 16.374 15.195 7.896.013 14.538-6.25 16.421-15.14.23.176.512.284.82.284.768.001 1.392-.645 1.393-1.443l.008-5.526c.001-.799-.62-1.447-1.388-1.448-.177 0-.346.038-.501.1-17.807 2.118-24.018-10.03-24.543-10.03 0 0-7.447 6.995-8.691 9.563z"/>
            <g>
                <path fill="#635E59" d="M25.507 35.47c-1.191.093-1.525-1.72-1.166-2.905.068-.224.462-1.246 1.16-1.246s1.006.559 1.049.655c.513 1.154.26 3.394-1.043 3.496M38.807 35.47c1.191.093 1.525-1.72 1.166-2.905-.068-.224-.462-1.246-1.16-1.246s-1.006.559-1.049.655c-.513 1.154-.26 3.394 1.043 3.496"/>
                <path fill="#D1BFA3" fill-rule="nonzero" d="M32.535 37.554c.7-.111 1.18-.041 1.35.176.648.82.44 1.689-.67 2.402-.583.374-1.386.506-1.811.312a.407.407 0 0 0-.544.217.43.43 0 0 0 .21.56c.703.321 1.784.144 2.58-.367 1.51-.97 1.854-2.417.874-3.66-.414-.526-1.149-.633-2.114-.48a.423.423 0 0 0-.345.485.414.414 0 0 0 .47.355z"/>
                <path fill="#D19E9C" fill-rule="nonzero" d="M37.229 43.751a3.91 3.91 0 0 1-.26.478c-.231.375-.522.75-.876 1.1-1.053 1.045-2.424 1.65-4.168 1.594-1.701-.054-3.066-.649-4.136-1.607a6.27 6.27 0 0 1-.976-1.105 3.89 3.89 0 0 1-.29-.477.406.406 0 0 0-.552-.194.431.431 0 0 0-.187.569c.06.127.178.334.358.595.295.428.663.855 1.107 1.254 1.208 1.082 2.751 1.754 4.65 1.815 1.978.062 3.559-.634 4.765-1.83.403-.4.734-.828 1-1.257.16-.261.266-.468.32-.595a.43.43 0 0 0-.213-.56.407.407 0 0 0-.542.22z"/>
            </g>
        </g>
    </g>
</svg>
